<svg width="106" height="106" viewBox="0 0 106 106" fill="none" xmlns="http://www.w3.org/2000/svg">
<g opacity="0.6">
<path d="M52.81 105.62C38.71 105.62 25.44 100.13 15.47 90.15C5.5 80.18 0 66.92 0 52.81C0 38.71 5.49 25.44 15.47 15.47C25.45 5.5 38.7 0 52.81 0C66.91 0 80.18 5.49 90.15 15.47C100.12 25.44 105.62 38.7 105.62 52.81C105.62 66.91 100.13 80.18 90.15 90.15C80.17 100.13 66.91 105.62 52.81 105.62ZM52.81 1.7C39.16 1.7 26.32 7.02 16.66 16.67C7 26.33 1.69 39.16 1.69 52.82C1.69 66.47 7.01 79.31 16.66 88.97C36.59 108.9 69.02 108.9 88.95 88.97C98.61 79.31 103.92 66.48 103.92 52.82C103.92 39.17 98.6 26.33 88.95 16.67C79.3 7.01 66.46 1.7 52.81 1.7Z" fill="#EAEAEA"/>
</g>
<g opacity="0.6">
<path d="M32.3402 32.35C21.0402 43.65 21.0402 61.98 32.3402 73.28C43.6402 84.58 61.9702 84.58 73.2702 73.28C84.5702 61.98 84.5702 43.65 73.2702 32.35C61.9702 21.05 43.6502 21.05 32.3402 32.35ZM72.2802 72.29C61.5202 83.05 44.0902 83.05 33.3302 72.29C22.5702 61.53 22.5702 44.1 33.3302 33.34C44.0902 22.58 61.5202 22.58 72.2802 33.34C83.0402 44.1 83.0402 61.54 72.2802 72.29Z" fill="#EAEAEA"/>
</g>
<g opacity="0.6">
<path d="M3.29754 2.10236L2.10254 3.29736L25.1045 26.2993L26.2995 25.1043L3.29754 2.10236Z" fill="#EAEAEA"/>
</g>
<g opacity="0.6">
<path d="M78.6452 77.4559L77.4502 78.6509L100.452 101.653L101.647 100.458L78.6452 77.4559Z" fill="#EAEAEA"/>
</g>
<g opacity="0.6">
<path d="M52.81 61.8798C57.8137 61.8798 61.87 57.8235 61.87 52.8198C61.87 47.8161 57.8137 43.7598 52.81 43.7598C47.8063 43.7598 43.75 47.8161 43.75 52.8198C43.75 57.8235 47.8063 61.8798 52.81 61.8798Z" fill="#EAEAEA"/>
</g>
</svg>
