<svg width="23" height="24" viewBox="0 0 23 24" fill="none" xmlns="http://www.w3.org/2000/svg">
<rect x="0.125" y="0.75" width="22.5" height="22.5" rx="11.25" fill="white"/>
<path d="M11.3769 6.46672C13.1805 6.46672 13.3922 6.47476 14.1051 6.50691C14.7644 6.53639 15.1208 6.64627 15.3593 6.74007C15.6756 6.86335 15.9007 7.00807 16.1365 7.24391C16.3724 7.47975 16.5198 7.70487 16.6404 8.02111C16.7315 8.25963 16.8441 8.61607 16.8735 9.27534C16.9057 9.98822 16.9137 10.1999 16.9137 12.0036C16.9137 13.8072 16.9057 14.0189 16.8735 14.7318C16.8441 15.3911 16.7342 15.7475 16.6404 15.986C16.5171 16.3023 16.3724 16.5274 16.1365 16.7632C15.9007 16.9991 15.6756 17.1465 15.3593 17.2671C15.1208 17.3582 14.7644 17.4708 14.1051 17.5002C13.3922 17.5324 13.1805 17.5404 11.3769 17.5404C9.57324 17.5404 9.36152 17.5324 8.64864 17.5002C7.98937 17.4708 7.63293 17.3609 7.39441 17.2671C7.07817 17.1438 6.85305 16.9991 6.61721 16.7632C6.38137 16.5274 6.23397 16.3023 6.11337 15.986C6.02225 15.7475 5.90969 15.3911 5.88021 14.7318C5.84805 14.0189 5.84001 13.8072 5.84001 12.0036C5.84001 10.1999 5.84805 9.98822 5.88021 9.27534C5.90969 8.61607 6.01957 8.25963 6.11337 8.02111C6.23665 7.70487 6.38137 7.47975 6.61721 7.24391C6.85305 7.00807 7.07817 6.86067 7.39441 6.74007C7.63293 6.64895 7.98937 6.53639 8.64864 6.50691C9.36152 6.47208 9.57592 6.46672 11.3769 6.46672ZM11.3769 5.25C9.54376 5.25 9.31328 5.25804 8.59236 5.2902C7.87413 5.32236 7.38369 5.4376 6.95489 5.60376C6.51001 5.77528 6.13481 6.00844 5.75961 6.38364C5.38441 6.75883 5.15393 7.13671 4.97974 7.57891C4.81358 8.00771 4.69834 8.49815 4.66618 9.21906C4.63402 9.9373 4.62598 10.1678 4.62598 12.0009C4.62598 13.834 4.63402 14.0645 4.66618 14.7854C4.69834 15.5036 4.81358 15.9941 4.97974 16.4256C5.15125 16.8704 5.38441 17.2456 5.75961 17.6208C6.13481 17.996 6.51269 18.2265 6.95489 18.4007C7.38369 18.5669 7.87413 18.6821 8.59504 18.7143C9.31596 18.7464 9.54376 18.7545 11.3796 18.7545C13.2153 18.7545 13.4431 18.7464 14.1641 18.7143C14.8823 18.6821 15.3727 18.5669 15.8042 18.4007C16.2491 18.2292 16.6243 17.996 16.9995 17.6208C17.3747 17.2456 17.6052 16.8678 17.7794 16.4256C17.9455 15.9968 18.0608 15.5063 18.0929 14.7854C18.1251 14.0645 18.1331 13.8367 18.1331 12.0009C18.1331 10.1651 18.1251 9.9373 18.0929 9.21638C18.0608 8.49815 17.9455 8.00771 17.7794 7.57623C17.6079 7.13135 17.3747 6.75615 16.9995 6.38096C16.6243 6.00576 16.2464 5.77528 15.8042 5.60108C15.3754 5.43492 14.885 5.31968 14.1641 5.28752C13.4405 5.25804 13.21 5.25 11.3769 5.25Z" fill="#100E58"/>
<path d="M11.3769 6.46672C13.1805 6.46672 13.3922 6.47476 14.1051 6.50691C14.7644 6.53639 15.1208 6.64627 15.3593 6.74007C15.6756 6.86335 15.9007 7.00807 16.1365 7.24391C16.3724 7.47975 16.5198 7.70487 16.6404 8.02111C16.7315 8.25963 16.8441 8.61607 16.8735 9.27534C16.9057 9.98822 16.9137 10.1999 16.9137 12.0036C16.9137 13.8072 16.9057 14.0189 16.8735 14.7318C16.8441 15.3911 16.7342 15.7475 16.6404 15.986C16.5171 16.3023 16.3724 16.5274 16.1365 16.7632C15.9007 16.9991 15.6756 17.1465 15.3593 17.2671C15.1208 17.3582 14.7644 17.4708 14.1051 17.5002C13.3922 17.5324 13.1805 17.5404 11.3769 17.5404C9.57324 17.5404 9.36152 17.5324 8.64864 17.5002C7.98937 17.4708 7.63293 17.3609 7.39441 17.2671C7.07817 17.1438 6.85305 16.9991 6.61721 16.7632C6.38137 16.5274 6.23397 16.3023 6.11337 15.986C6.02225 15.7475 5.90969 15.3911 5.88021 14.7318C5.84805 14.0189 5.84001 13.8072 5.84001 12.0036C5.84001 10.1999 5.84805 9.98822 5.88021 9.27534C5.90969 8.61607 6.01957 8.25963 6.11337 8.02111C6.23665 7.70487 6.38137 7.47975 6.61721 7.24391C6.85305 7.00807 7.07817 6.86067 7.39441 6.74007C7.63293 6.64895 7.98937 6.53639 8.64864 6.50691C9.36152 6.47208 9.57592 6.46672 11.3769 6.46672Z" fill="#100E58"/>
<path d="M11.3766 8.53564C9.46309 8.53564 7.90869 10.0874 7.90869 12.0035C7.90869 13.9197 9.4604 15.4715 11.3766 15.4715C13.2928 15.4715 14.8445 13.9197 14.8445 12.0035C14.8445 10.0874 13.2928 8.53564 11.3766 8.53564ZM11.3766 14.2521C10.1331 14.2521 9.12541 13.2444 9.12541 12.0009C9.12541 10.7574 10.1331 9.74968 11.3766 9.74968C12.6201 9.74968 13.6278 10.7574 13.6278 12.0009C13.6278 13.2444 12.6201 14.2521 11.3766 14.2521Z" fill="white"/>
<path d="M14.9812 9.20563C15.4282 9.20563 15.7906 8.84327 15.7906 8.39627C15.7906 7.94928 15.4282 7.58691 14.9812 7.58691C14.5342 7.58691 14.1719 7.94928 14.1719 8.39627C14.1719 8.84327 14.5342 9.20563 14.9812 9.20563Z" fill="white"/>
</svg>
