<svg width="119" height="299" viewBox="0 0 119 299" fill="none" xmlns="http://www.w3.org/2000/svg">
<g opacity="0.8">
<path d="M1.68983 0.000228308L0 0.0249023L0.014892 1.0448L1.70473 1.02012L1.68983 0.000228308Z" fill="#EAEAEA"/>
<path d="M118.671 292.362H116.981V290.332H118.671V292.362ZM118.671 285.552H116.981V283.522H118.671V285.552ZM118.671 278.742H116.981V276.712H118.671V278.742ZM118.671 271.922H116.981V269.892H118.671V271.922ZM118.671 265.112H116.981V263.082H118.671V265.112ZM118.671 258.292H116.981V256.262H118.671V258.292ZM118.671 251.482H116.981V249.452H118.671V251.482ZM118.671 244.672H116.981V242.642H118.671V244.672ZM118.671 237.852H116.981V235.822H118.671V237.852ZM118.671 231.042H116.981V229.012H118.671V231.042ZM118.671 224.222H116.981V222.192H118.671V224.222ZM118.671 217.412H116.981V217.332C116.981 216.702 116.951 216.082 116.901 215.462L118.581 215.322C118.641 215.982 118.671 216.662 118.671 217.332V217.412ZM116.011 210.962C115.811 210.342 115.571 209.732 115.311 209.162L116.851 208.462C117.141 209.092 117.391 209.752 117.621 210.442L116.011 210.962ZM112.841 205.432C112.391 204.972 111.921 204.572 111.431 204.232L112.381 202.842C112.961 203.242 113.531 203.712 114.051 204.262L112.841 205.432ZM107.401 203.042H105.371V201.352H107.401V203.042ZM100.591 203.042H98.5611V201.352H100.591V203.042ZM93.7711 203.042H91.7411V201.352H93.7711V203.042ZM86.9611 203.042H84.9311V201.352H86.9611V203.042ZM80.1511 203.042H78.1211V201.352H80.1511V203.042ZM73.3311 203.042H71.3011V201.352H73.3311V203.042ZM66.5211 203.042H64.4911V201.352H66.5211V203.042ZM59.701 203.042H57.6711V201.352H59.701V203.042ZM52.8911 203.042H50.8611V201.352H52.8911V203.042ZM46.0811 203.042H44.0511V201.352H46.0811V203.042ZM39.261 203.042H37.2311V201.352H39.261V203.042ZM32.451 203.042H30.4211V201.352H32.451V203.042ZM25.6311 203.042H23.6011V201.352H25.6311V203.042ZM18.821 203.042H16.7911V201.352H18.821V203.042ZM11.8311 202.822C11.1211 202.652 10.4111 202.372 9.74109 202.002L10.5611 200.522C11.1011 200.822 11.6611 201.042 12.2311 201.172L11.8311 202.822ZM5.99109 198.512C5.59109 197.942 5.22105 197.332 4.89105 196.672L6.39105 195.902C6.69105 196.482 7.02109 197.032 7.37109 197.542L5.99109 198.512ZM3.22107 191.972C3.07107 191.292 2.95109 190.592 2.87109 189.892L4.54108 189.692C4.62108 190.342 4.73108 190.982 4.86108 191.612L3.22107 191.972ZM2.67108 185.022L2.64105 182.992L4.33105 182.972L4.36108 185.002L2.67108 185.022ZM2.57104 178.212L2.54108 176.182L4.23108 176.162L4.26105 178.192L2.57104 178.212ZM2.48108 171.392L2.45105 169.362L4.14105 169.342L4.17108 171.372L2.48108 171.392ZM2.3811 164.582L2.35107 162.552L4.04108 162.532L4.07104 164.562L2.3811 164.582ZM2.28107 157.772L2.2511 155.742L3.9411 155.722L3.97107 157.752L2.28107 157.772ZM2.18109 150.952L2.15106 148.922L3.84106 148.902L3.87109 150.932L2.18109 150.952ZM2.08105 144.142L2.05109 142.112L3.74109 142.092L3.77106 144.122L2.08105 144.142ZM1.98108 137.332L1.95105 135.302L3.64105 135.282L3.67108 137.312L1.98108 137.332ZM1.8811 130.512L1.85107 128.482L3.54108 128.462L3.57104 130.492L1.8811 130.512ZM1.78107 123.702L1.7511 121.672L3.4411 121.652L3.47107 123.682L1.78107 123.702ZM1.6911 116.892L1.66107 114.862L3.35107 114.842L3.3811 116.872L1.6911 116.892ZM1.59106 110.072L1.5611 108.042L3.2511 108.022L3.28107 110.052L1.59106 110.072ZM1.49109 103.262L1.46106 101.232L3.15106 101.212L3.18109 103.242L1.49109 103.262ZM1.39105 96.4523L1.36108 94.4223L3.05109 94.4023L3.08105 96.4323L1.39105 96.4523ZM1.29108 89.6323L1.26105 87.6023L2.95105 87.5823L2.98108 89.6123L1.29108 89.6323ZM1.1911 82.8223L1.16107 80.7923L2.85107 80.7723L2.8811 82.8023L1.1911 82.8223ZM1.09106 76.0123L1.0611 73.9823L2.7511 73.9623L2.78107 75.9923L1.09106 76.0123ZM0.991089 69.1923L0.96106 67.1623L2.65106 67.1423L2.68109 69.1723L0.991089 69.1923ZM0.901062 62.3823L0.871094 60.3523L2.5611 60.3323L2.59106 62.3623L0.901062 62.3823ZM0.801086 55.5723L0.771057 53.5423L2.46106 53.5223L2.49109 55.5523L0.801086 55.5723ZM0.70105 48.7523L0.671082 46.7223L2.36108 46.7023L2.39105 48.7323L0.70105 48.7523ZM0.601074 41.9423L0.571045 39.9123L2.26105 39.8923L2.29108 41.9223L0.601074 41.9423ZM0.501099 35.1323L0.471069 33.1023L2.16107 33.0823L2.1911 35.1123L0.501099 35.1323ZM0.401062 28.3123L0.371094 26.2823L2.0611 26.2623L2.09106 28.2923L0.401062 28.3123ZM0.301086 21.5023L0.271057 19.4723L1.96106 19.4523L1.99109 21.4823L0.301086 21.5023ZM0.20105 14.6923L0.171082 12.6623L1.86108 12.6423L1.89105 14.6723L0.20105 14.6923ZM0.111084 7.87226L0.0810547 5.84226L1.77106 5.82227L1.80109 7.85226L0.111084 7.87226Z" fill="#EAEAEA"/>
<path d="M118.68 297.172H116.99V298.192H118.68V297.172Z" fill="#EAEAEA"/>
</g>
</svg>
