<svg width="119" height="299" viewBox="0 0 119 299" fill="none" xmlns="http://www.w3.org/2000/svg">
<g opacity="0.8">
<path d="M117.004 0.000102019L116.989 1.02002L118.679 1.04469L118.694 0.0247761L117.004 0.000102019Z" fill="#EAEAEA"/>
<path d="M0 290.316H1.69V292.346H0V290.316ZM0 283.506H1.69V285.536H0V283.506ZM0 276.686H1.69V278.716H0V276.686ZM0 269.876H1.69V271.906H0V269.876ZM0 263.066H1.69V265.096H0V263.066ZM0 256.246H1.69V258.276H0V256.246ZM0 249.436H1.69V251.466H0V249.436ZM0 242.616H1.69V244.646H0V242.616ZM0 235.806H1.69V237.836H0V235.806ZM0 228.996H1.69V231.026H0V228.996ZM0 222.176H1.69V224.206H0V222.176ZM0 217.306C0 216.636 0.0299963 215.956 0.0899963 215.296L1.77 215.436C1.72 216.046 1.69 216.676 1.69 217.306V217.386H0V217.306ZM1.05 210.416C1.27 209.736 1.53 209.066 1.81 208.436L3.35001 209.136C3.09001 209.706 2.86001 210.316 2.65001 210.936L1.05 210.416ZM4.61 204.236C5.14 203.696 5.7 203.216 6.28 202.816L7.23 204.206C6.74 204.536 6.27001 204.946 5.82001 205.406L4.61 204.236ZM11.27 201.326H13.3V203.016H11.27V201.326ZM18.08 201.326H20.11V203.016H18.08V201.326ZM24.89 201.326H26.92V203.016H24.89V201.326ZM31.71 201.326H33.74V203.016H31.71V201.326ZM38.52 201.326H40.55V203.016H38.52V201.326ZM45.34 201.326H47.37V203.016H45.34V201.326ZM52.15 201.326H54.18V203.016H52.15V201.326ZM58.96 201.326H60.99V203.016H58.96V201.326ZM65.78 201.326H67.81V203.016H65.78V201.326ZM72.59 201.326H74.62V203.016H72.59V201.326ZM79.41 201.326H81.44V203.016H79.41V201.326ZM86.22 201.326H88.25V203.016H86.22V201.326ZM93.03 201.326H95.06V203.016H93.03V201.326ZM99.85 201.326H101.88V203.016H99.85V201.326ZM106.45 201.166C107.02 201.026 107.58 200.806 108.12 200.516L108.94 201.996C108.27 202.366 107.56 202.646 106.85 202.816L106.45 201.166ZM111.3 197.516C111.65 197.016 111.98 196.456 112.28 195.876L113.78 196.646C113.45 197.296 113.08 197.916 112.68 198.486L111.3 197.516ZM113.8 191.586C113.94 190.956 114.05 190.316 114.12 189.666L115.79 189.866C115.71 190.566 115.59 191.266 115.44 191.946L113.8 191.586ZM114.31 184.976L114.34 182.946L116.03 182.966L116 184.996L114.31 184.976ZM114.41 178.166L114.44 176.136L116.13 176.156L116.1 178.186L114.41 178.166ZM114.51 171.346L114.54 169.316L116.23 169.336L116.2 171.366L114.51 171.346ZM114.61 164.536L114.64 162.506L116.33 162.526L116.3 164.556L114.61 164.536ZM114.7 157.726L114.73 155.696L116.42 155.716L116.39 157.746L114.7 157.726ZM114.8 150.906L114.83 148.876L116.52 148.896L116.49 150.926L114.8 150.906ZM114.9 144.096L114.93 142.066L116.62 142.086L116.59 144.116L114.9 144.096ZM115 137.286L115.03 135.256L116.72 135.276L116.69 137.306L115 137.286ZM115.1 130.466L115.13 128.436L116.82 128.456L116.79 130.486L115.1 130.466ZM115.2 123.656L115.23 121.626L116.92 121.646L116.89 123.676L115.2 123.656ZM115.3 116.846L115.33 114.816L117.02 114.836L116.99 116.866L115.3 116.846ZM115.4 110.026L115.43 107.996L117.12 108.016L117.09 110.046L115.4 110.026ZM115.5 103.216L115.53 101.186L117.22 101.206L117.19 103.236L115.5 103.216ZM115.59 96.4059L115.62 94.3759L117.31 94.3959L117.28 96.4259L115.59 96.4059ZM115.69 89.5859L115.72 87.5559L117.41 87.5759L117.38 89.6059L115.69 89.5859ZM115.79 82.7759L115.82 80.7459L117.51 80.7659L117.48 82.7959L115.79 82.7759ZM115.89 75.9659L115.92 73.9359L117.61 73.9559L117.58 75.9859L115.89 75.9659ZM115.99 69.1459L116.02 67.1159L117.71 67.1359L117.68 69.1659L115.99 69.1459ZM116.09 62.3359L116.12 60.3059L117.81 60.3259L117.78 62.3559L116.09 62.3359ZM116.19 55.5259L116.22 53.4959L117.91 53.5159L117.88 55.5459L116.19 55.5259ZM116.29 48.7059L116.32 46.6759L118.01 46.6959L117.98 48.7259L116.29 48.7059ZM116.38 41.8959L116.41 39.8659L118.1 39.8859L118.07 41.9159L116.38 41.8959ZM116.48 35.0859L116.51 33.0559L118.2 33.0759L118.17 35.1059L116.48 35.0859ZM116.58 28.2659L116.61 26.2359L118.3 26.2559L118.27 28.2859L116.58 28.2659ZM116.68 21.4559L116.71 19.4259L118.4 19.4459L118.37 21.4759L116.68 21.4559ZM116.78 14.6459L116.81 12.6159L118.5 12.6359L118.47 14.6659L116.78 14.6459ZM116.88 7.8259L116.91 5.7959L118.6 5.81589L118.57 7.84592L116.88 7.8259Z" fill="#EAEAEA"/>
<path d="M1.69 297.146H0V298.166H1.69V297.146Z" fill="#EAEAEA"/>
</g>
</svg>
