<svg width="23" height="24" viewBox="0 0 23 24" fill="none" xmlns="http://www.w3.org/2000/svg">
<rect x="0.25" y="0.75" width="22.5" height="22.5" rx="11.25" fill="white"/>
<path d="M16.774 5.8125H6.22602C5.98374 5.8125 5.75138 5.90875 5.58006 6.08006C5.40875 6.25138 5.3125 6.48374 5.3125 6.72602V17.274C5.3125 17.5163 5.40875 17.7486 5.58006 17.9199C5.75138 18.0913 5.98374 18.1875 6.22602 18.1875H16.774C17.0163 18.1875 17.2486 18.0913 17.4199 17.9199C17.5913 17.7486 17.6875 17.5163 17.6875 17.274V6.72602C17.6875 6.48374 17.5913 6.25138 17.4199 6.08006C17.2486 5.90875 17.0163 5.8125 16.774 5.8125ZM9.00094 16.3545H7.14039V10.4445H9.00094V16.3545ZM8.06938 9.62555C7.85833 9.62436 7.65236 9.56068 7.47747 9.44255C7.30258 9.32441 7.16661 9.15712 7.0867 8.96178C7.0068 8.76644 6.98655 8.55181 7.02852 8.34497C7.07048 8.13813 7.17277 7.94836 7.32249 7.79961C7.4722 7.65085 7.66262 7.54978 7.86972 7.50914C8.07683 7.46851 8.29132 7.49013 8.48615 7.57129C8.68097 7.65244 8.84739 7.78949 8.9644 7.96514C9.0814 8.14078 9.14376 8.34715 9.14359 8.5582C9.14558 8.6995 9.11911 8.83975 9.06574 8.9706C9.01237 9.10145 8.93321 9.22021 8.83297 9.31982C8.73272 9.41942 8.61345 9.49782 8.48227 9.55034C8.35108 9.60287 8.21066 9.62845 8.06938 9.62555ZM15.8588 16.3596H13.9991V13.1309C13.9991 12.1788 13.5943 11.8848 13.0718 11.8848C12.5201 11.8848 11.9787 12.3008 11.9787 13.155V16.3596H10.1181V10.4488H11.9073V11.2678H11.9314C12.111 10.9043 12.7401 10.283 13.7 10.283C14.7381 10.283 15.8596 10.8991 15.8596 12.7038L15.8588 16.3596Z" fill="#100E58"/>
</svg>
