<svg xmlns="http://www.w3.org/2000/svg" xmlns:xlink="http://www.w3.org/1999/xlink" version="1.1" id="Capa_1" x="0px" y="0px" viewBox="0 0 595.28 235.03" style="enable-background:new 0 0 595.28 235.03;" xml:space="preserve">
<style type="text/css">
	.st0{fill:#ffffff;}
</style>
<path class="st0" d="M188.39,201.46c-54.71,0-108.84,0-163.59,0c0-54.28,0-108.51,0-163.18c54.42,0,108.71,0,163.59,0  C188.39,92.5,188.39,146.55,188.39,201.46z M33.49,47.18c0,48.84,0,96.88,0,145.28c48.57,0,96.76,0,145.47,0  c0-48.54,0-96.72,0-145.28C130.29,47.18,82.1,47.18,33.49,47.18z" fill="#ffffff"/>
<path class="st0" d="M242.35,134.93c0,5.13,0,8.78,0,13.58c15.24,0,30.18,0,45.52,0c0,6.6,0,12.06,0,18.59c-15.21,0-30.17,0-45.43,0  c0,5.62,0,10.15,0,15.64c16.54,0,32.68,0,49.3,0c0,6.63,0,12.32,0,18.52c-24.81,0-49.3,0-74.33,0c0-28.18,0-56.18,0-85.5  c24.07-0.04,48.08-0.03,72.77,0.01c0,6.46,0,12.32,0,19.17C274.33,134.93,258.66,134.93,242.35,134.93z" fill="#ffffff"/>
<path class="st0" d="M470.63,116.25c0,6.52,0,12.21,0,18.77c-16.13,0-31.82,0-47.91,0c0,4.68,0,8.51,0,13.39c15.06,0,30.01,0,45.5,0  c0,6.65,0,12.27,0,18.82c-15.34,0-30.31,0-45.58,0c0,5.47,0,10.01,0,15.4c16.49,0,32.66,0,49.34,0c0,6.52,0,12.2,0,18.52  c-24.5,0-48.98,0-74.56,0c-0.58-28.03-0.2-56.19-0.25-84.9C422.05,116.25,446.05,116.25,470.63,116.25z" fill="#ffffff"/>
<path class="st0" d="M330.03,172.47c0,9.72,0,18.92,0,28.7c-8.54,0-16.29,0-24.65,0c0-28.13,0-56.32,0-85.38  c20.21,0.29,40.21-1.74,59.95,1.3c15.2,2.34,21.96,13.47,20.73,30.42c-0.96,13.27-9.98,22.21-24.12,23.42  c-7.86,0.67-15.77,0.76-23.65,1.12C335.79,172.16,333.31,172.3,330.03,172.47z M330.39,153.32c7.99,0,15.56,0.55,23.01-0.19  c5.22-0.51,7.18-4.04,7.18-9.41c0-1.14-0.12-4.37-2.22-6.76c-1.76-1.99-4.3-2.69-13.89-2.92c-3.73-0.09-8.5-0.11-14.07,0.12  C330.39,140.93,330.39,147.05,330.39,153.32z" fill="#ffffff"/>
<path class="st0" d="M172.13,152.03c0,11.27,0,22.08,0,33.43c-44.02,0-87.54,0-131.63,0c0-43.76,0-87.63,0-130.84  c0-0.05,131.37-0.03,131.37,0c0,27.09,0,54.23,0,81.97c-32.38,0-64.54,0-97.33,0c0,5.02,0,9.53,0,15.32  c16.01,0.25,32.15,0.07,48.27,0.1C139.02,152.05,155.23,152.03,172.13,152.03z M74.26,102.71c21.67,0,42.65,0,63.98,0  c0-4.99,0-9.54,0-14.52c-21.31,0-42.46,0-63.98,0C74.26,93.12,74.26,97.46,74.26,102.71z" fill="#ffffff"/>
<path class="st0" d="M547.32,143.94c7.23,0,15.05,0,23.64,0c0.32-2.89,0.16-5.58-0.41-8.11c-1.38-6.17-4.75-10.09-6.24-11.8  c-7.31-8.41-18.29-10.67-22.68-11.52c-17.86-3.44-44.51,0.4-54.91,17.96c-3.44,5.82-4.87,12.36-5.31,15.86  c-0.98,7.75-0.94,15.93,0.4,23.6c2.34,13.37,10.53,22.78,23.29,27.47c14.81,5.46,29.97,5.86,45.11,1.39  c12.84-3.79,19.22-12.97,20.93-27.21c-4.41-0.15-8.42-0.33-12.44-0.4c-3.93-0.07-7.86-0.01-12.23-0.01  c-1.4,4.36-3.97,8.14-8.15,10.2c-6.02,2.97-14.94,2.43-21.01-0.25c-4.46-1.97-7.91-5.78-9.34-10.48  c-1.73-5.67-1.84-13.11-1.28-18.98c0.91-9.57,6.45-18.1,16.01-20.69c6.06-1.64,13.05-0.43,18.02,3.48  C544.91,137.78,546.65,141.97,547.32,143.94z" fill="#ffffff"/>
</svg>