<svg id="Capa_1" data-name="Capa 1" xmlns="http://www.w3.org/2000/svg" viewBox="0 0 698.3 124.96"><defs><style>.cls-1{fill:#fff;fill-rule:evenodd;}</style></defs><title>Logo-Gestamp-(white)02</title><g id="Primer_plano" data-name="Primer plano"><path class="cls-1" d="M671.47,43.35a9,9,0,1,1-9,9A9.14,9.14,0,0,1,671.47,43.35Zm-81,12.26C587.31,61.44,582,69.46,582,75.86c0,7.67,4.05,10,10.57,10,10.58,0,25.93-10.4,35.37-18-10,4.16-22.11,9.6-32,9.6-4.86,0-9.27-1.5-9.27-8.36C586.74,64.83,588.42,59.73,590.46,55.61ZM557.53,0h69.41c-28.77,24.44-55.29,57.68-57.69,79.24a34.3,34.3,0,0,0-.27,4.45c0,4.44,1.95,12.12,7.54,15.75a21.49,21.49,0,0,1-4.92-12.35A34,34,0,0,1,580.15,64c-1.9,5.22-3.89,9.93-4.38,14.76a34.85,34.85,0,0,0-.26,4.58c.29,18.42,22.15,17,26.79,16.45,32.11-4,64.65-31.6,66.32-31.6,0,0,17.77,1.89,18.64-15.66.43-8.51-6.69-15.92-15.92-15.92-8.23,0-15.67,6.36-16,16.52-16.16,15-46.62,37.79-65.32,37.79-6.49,0-10.83-3.73-10.83-11.23,0-23.77,41.11-64.13,67-79.65H698.3V125H557.53Z"/><path class="cls-1" d="M484.91,98.44c.77-2.52,1.52-4.94,2.25-7.24s1.55-4.7,2.32-7.23A22.52,22.52,0,0,0,499,82.83a12.78,12.78,0,0,0,6.14-5.34,19.92,19.92,0,0,0,2.32-5.95,32.36,32.36,0,0,0,1-7.3,37.12,37.12,0,0,0-.62-7.5,19.92,19.92,0,0,0-2.18-6.28,12.39,12.39,0,0,0-5.12-4.87,23.74,23.74,0,0,0-7.37-2.3,39.73,39.73,0,0,0-8.67-.27,89.1,89.1,0,0,0-9.08,1v80.34H457.2V31.54q4.92-1.16,10.37-1.9t11.33-1.08c4.92-.13,9.53,0,13.86.27a57.23,57.23,0,0,1,11.8,1.89A33,33,0,0,1,514,34.78a22.47,22.47,0,0,1,6.76,6.76,24.46,24.46,0,0,1,3.07,6.28,38.21,38.21,0,0,1,1.77,7.43,57.44,57.44,0,0,1,.55,8,51.35,51.35,0,0,1-.61,8,47.16,47.16,0,0,1-1.64,7.43A35.39,35.39,0,0,1,521.29,85a24.32,24.32,0,0,1-5.87,6.82,30.17,30.17,0,0,1-8.19,4.6,42,42,0,0,1-10.31,2.23A57.29,57.29,0,0,1,484.91,98.44Zm-147.27.13V27.62h14l2.12,8.92q12.35-8.92,24.5-8.92,13.51,0,19.18,9.73,13.71-9.74,25.73-9.73,22.65,0,22.66,27v44H427.73V53.9q0-11.82-10.1-11.82-8.06,0-16.86,9.19v47.3H382.68V54.11q0-12-10-12-8.6,0-17,9.19v47.3ZM293.25,68.16q-13,0-13,8.11t13,8.11h16.66L310,68.16Zm-31.12,8.31q0-21.82,31.12-21.82A92.29,92.29,0,0,1,309.91,56V51.34q0-9.54-18.64-9.53a83.24,83.24,0,0,0-23.34,3.38V31a83.24,83.24,0,0,1,23.34-3.38Q328,27.62,328,51V98.57H291.14Q262.13,98.57,262.13,76.47Zm-37-60.34h13.38l2.73,11.49h16.65V41.81H243.24V74.45q0,9.93,8.67,9.93h6V98.57H243.17q-18,0-18-19.12ZM159.82,95.19V80.33q11.94,4.73,27.57,4.73,11.67,0,11.67-7.44,0-6.75-7.85-6.76h-13q-21.84,0-21.84-21.62,0-22.29,31.88-22.3A78.42,78.42,0,0,1,213.73,31V45.86a69.83,69.83,0,0,0-25.93-4.73q-14.67,0-14.67,7.43,0,6.77,8.53,6.76h11.6q23.88,0,23.89,21.63,0,22.29-30.44,22.3A83.14,83.14,0,0,1,159.82,95.19ZM105.37,57h29.89q.94-15.27-14.33-15.28Q106.59,41.67,105.37,57Zm46.88,13.11H105.37q0,14.32,23.61,14.32a117.18,117.18,0,0,0,21.7-2v14.2q-9.48,2-24.43,2-39,0-39-36.29,0-34.66,35.69-34.66T152.25,70.06ZM67.77,20.25,75.69,5.52Zm0-.06a49.77,49.77,0,0,0-6.21-1.63,32.8,32.8,0,0,0-6.89-.67q-17.74,0-26.55,8T19.38,49q0,17,8.13,25.68T52.14,83.3a37.26,37.26,0,0,0,5.53-.47l6.21-1.08v-21H46.21l8.46-15.61H82.38V93.37Q69.75,98,52.14,98q-25.93,0-39-12.23T0,49A59,59,0,0,1,3.28,28.7a38.8,38.8,0,0,1,10-15.14A43.65,43.65,0,0,1,29.76,4.1,73.52,73.52,0,0,1,53,.79,47.19,47.19,0,0,1,64.77,2.21q5.6,1.43,10.92,3.31Z"/></g></svg>