<svg width="743" height="546" viewBox="0 0 743 546" fill="none" xmlns="http://www.w3.org/2000/svg">
<g opacity="0.6">
<path d="M713 347C705.124 347 697.711 343.933 692.142 338.358C686.572 332.789 683.5 325.382 683.5 317.5C683.5 309.624 686.567 302.211 692.142 296.642C697.717 291.072 705.118 288 713 288C720.876 288 728.289 291.067 733.858 296.642C739.428 302.211 742.5 309.618 742.5 317.5C742.5 325.376 739.433 332.789 733.858 338.358C728.283 343.933 720.876 347 713 347ZM713 288.95C705.375 288.95 698.203 291.921 692.806 297.312C687.41 302.708 684.444 309.875 684.444 317.506C684.444 325.131 687.416 332.303 692.806 337.699C703.939 348.832 722.055 348.832 733.188 337.699C738.584 332.303 741.55 325.136 741.55 317.506C741.55 309.881 738.579 302.708 733.188 297.312C727.797 291.916 720.625 288.95 713 288.95Z" fill="#EAEAEA"/>
</g>
<g opacity="0.6">
<path d="M701.565 306.071C695.253 312.383 695.253 322.623 701.565 328.935C707.877 335.247 718.117 335.247 724.429 328.935C730.741 322.623 730.741 312.383 724.429 306.071C718.117 299.759 707.883 299.759 701.565 306.071ZM723.876 328.382C717.865 334.392 708.129 334.392 702.118 328.382C696.108 322.371 696.108 312.635 702.118 306.624C708.129 300.614 717.865 300.614 723.876 306.624C729.887 312.635 729.887 322.377 723.876 328.382Z" fill="#EAEAEA"/>
</g>
<g opacity="0.6">
<path d="M685.342 289.175L684.674 289.843L697.523 302.692L698.191 302.024L685.342 289.175Z" fill="#EAEAEA"/>
</g>
<g opacity="0.6">
<path d="M727.431 331.268L726.764 331.936L739.613 344.785L740.28 344.117L727.431 331.268Z" fill="#EAEAEA"/>
</g>
<g opacity="0.6">
<path d="M713 322.566C715.795 322.566 718.061 320.3 718.061 317.505C718.061 314.71 715.795 312.444 713 312.444C710.205 312.444 707.939 314.71 707.939 317.505C707.939 320.3 710.205 322.566 713 322.566Z" fill="#EAEAEA"/>
</g>
<g opacity="0.8">
<path d="M712.387 319.441L711.289 319.464L711.268 316.595L712.366 316.572L712.387 319.441Z" fill="#EAEAEA"/>
<path d="M399.377 517.48L399.383 514.611L397.197 514.607L397.191 517.476L399.377 517.48ZM406.711 517.495L406.716 514.625L404.53 514.621L404.525 517.49L406.711 517.495ZM414.055 517.509L414.06 514.64L411.874 514.635L411.869 517.504L414.055 517.509ZM421.388 517.523L421.394 514.654L419.208 514.649L419.202 517.519L421.388 517.523ZM428.722 517.537L428.727 514.668L426.541 514.663L426.536 517.533L428.722 517.537ZM436.066 517.551L436.071 514.682L433.885 514.678L433.88 517.547L436.066 517.551ZM443.399 517.565L443.405 514.696L441.219 514.692L441.213 517.561L443.399 517.565ZM450.743 517.579L450.749 514.71L448.563 514.706L448.557 517.575L450.743 517.579ZM458.077 517.593L458.082 514.724L455.896 514.72L455.891 517.589L458.077 517.593ZM465.41 517.607L465.416 514.738L463.23 514.734L463.224 517.603L465.41 517.607ZM472.754 517.621L472.76 514.752L470.574 514.748L470.568 517.617L472.754 517.621ZM477.999 517.631C478.72 517.633 479.452 517.583 480.163 517.483L480.018 514.63C479.361 514.714 478.683 514.763 478.004 514.762L477.918 514.762L477.912 517.631L477.999 517.631ZM485.422 515.863C486.155 515.491 486.877 515.051 487.556 514.577L486.807 511.961C486.193 512.401 485.535 512.79 484.867 513.146L485.422 515.863ZM492.088 509.832C492.671 508.933 493.19 507.983 493.623 507L492.129 505.384C491.772 506.215 491.329 507.012 490.832 507.775L492.088 509.832ZM495.244 498.531L495.25 495.085L493.43 495.081L493.424 498.528L495.244 498.531ZM495.266 486.97L495.272 483.523L493.452 483.52L493.446 486.966L495.266 486.97ZM495.288 475.408L495.295 471.962L493.475 471.958L493.468 475.405L495.288 475.408ZM495.31 463.83L495.317 460.383L493.497 460.38L493.49 463.826L495.31 463.83ZM495.332 452.268L495.339 448.822L493.519 448.819L493.512 452.265L495.332 452.268ZM495.355 440.69L495.361 437.244L493.541 437.24L493.535 440.687L495.355 440.69ZM495.377 429.129L495.383 425.682L493.563 425.679L493.557 429.125L495.377 429.129ZM495.399 417.567L495.406 414.121L493.586 414.117L493.579 417.564L495.399 417.567ZM495.421 405.989L495.428 402.542L493.608 402.539L493.601 405.985L495.421 405.989ZM495.443 394.427L495.45 390.981L493.63 390.977L493.623 394.424L495.443 394.427ZM495.466 382.849L495.472 379.402L493.652 379.399L493.646 382.845L495.466 382.849ZM495.488 371.287L495.494 367.841L493.674 367.838L493.668 371.284L495.488 371.287ZM495.51 359.726L495.516 356.28L493.697 356.276L493.69 359.722L495.51 359.726ZM495.532 348.148L495.539 344.701L493.719 344.698L493.712 348.144L495.532 348.148ZM495.726 336.943C495.879 335.976 496.117 335.025 496.431 334.109L494.84 332.714C494.44 333.851 494.136 335.056 493.95 336.261L495.726 336.943ZM499.672 328.717C500.212 328.123 500.816 327.564 501.441 327.056L500.617 324.508C499.916 325.067 499.247 325.694 498.632 326.372L499.672 328.717ZM506.066 324.485C506.745 324.248 507.435 324.063 508.135 323.945L507.925 321.11C507.171 321.244 506.417 321.446 505.684 321.7L506.066 324.485ZM513.186 323.632L515.372 323.586L515.356 320.716L513.17 320.763L513.186 323.632ZM520.52 323.477L522.706 323.43L522.69 320.561L520.504 320.608L520.52 323.477ZM527.864 323.321L530.05 323.274L530.034 320.405L527.848 320.452L527.864 323.321ZM535.198 323.165L537.384 323.119L537.368 320.249L535.182 320.296L535.198 323.165ZM542.532 323.027L544.718 322.98L544.702 320.111L542.515 320.157L542.532 323.027ZM549.876 322.871L552.062 322.824L552.046 319.955L549.86 320.002L549.876 322.871ZM557.21 322.715L559.396 322.668L559.38 319.799L557.194 319.846L557.21 322.715ZM564.544 322.56L566.73 322.513L566.714 319.644L564.527 319.69L564.544 322.56ZM571.888 322.404L574.074 322.357L574.058 319.488L571.872 319.535L571.888 322.404ZM579.222 322.248L581.408 322.201L581.392 319.332L579.206 319.379L579.222 322.248ZM586.555 322.092L588.742 322.046L588.726 319.177L586.539 319.223L586.555 322.092ZM593.9 321.937L596.086 321.89L596.07 319.021L593.884 319.068L593.9 321.937ZM601.234 321.781L603.42 321.734L603.404 318.865L601.218 318.912L601.234 321.781ZM608.567 321.642L610.754 321.596L610.738 318.726L608.551 318.773L608.567 321.642ZM615.912 321.487L618.098 321.44L618.082 318.571L615.896 318.618L615.912 321.487ZM623.246 321.331L625.432 321.284L625.416 318.415L623.23 318.462L623.246 321.331ZM630.579 321.175L632.766 321.129L632.75 318.259L630.563 318.306L630.579 321.175ZM637.924 321.02L640.11 320.973L640.094 318.104L637.908 318.15L637.924 321.02ZM645.258 320.864L647.444 320.817L647.428 317.948L645.242 317.995L645.258 320.864ZM652.591 320.708L654.778 320.661L654.761 317.792L652.575 317.839L652.591 320.708ZM659.936 320.553L662.122 320.506L662.106 317.637L659.92 317.683L659.936 320.553ZM667.27 320.414L669.456 320.367L669.44 317.498L667.254 317.545L667.27 320.414ZM674.603 320.258L676.789 320.211L676.773 317.342L674.587 317.389L674.603 320.258ZM681.948 320.102L684.134 320.056L684.118 317.186L681.932 317.233L681.948 320.102ZM689.282 319.947L691.468 319.9L691.452 317.031L689.266 317.078L689.282 319.947ZM696.615 319.791L698.801 319.744L698.785 316.875L696.599 316.922L696.615 319.791ZM703.96 319.635L706.146 319.589L706.13 316.719L703.944 316.766L703.96 319.635Z" fill="#EAEAEA"/>
<path d="M392.028 514.597L392.022 517.466L390.924 517.464L390.93 514.595L392.028 514.597Z" fill="#EAEAEA"/>
</g>
<g opacity="0.8">
<path d="M256.88 200L255 200.025L255.017 201.089L256.896 201.064L256.88 200Z" fill="#EAEAEA"/>
<path d="M387 504.919H385.12V502.802H387V504.919ZM387 497.817H385.12V495.699H387V497.817ZM387 490.704H385.12V488.586H387V490.704ZM387 483.601H385.12V481.484H387V483.601ZM387 476.498H385.12V474.381H387V476.498ZM387 469.385H385.12V467.268H387V469.385ZM387 462.283H385.12V460.165H387V462.283ZM387 455.169H385.12V453.052H387V455.169ZM387 448.067H385.12V445.95H387V448.067ZM387 440.964H385.12V438.847H387V440.964ZM387 433.851H385.12V431.734H387V433.851ZM387 426.748H385.12V426.665C385.12 426.008 385.087 425.361 385.031 424.715L386.9 424.569C386.967 425.257 387 425.966 387 426.665V426.748ZM384.041 420.021C383.819 419.375 383.552 418.738 383.263 418.144L384.976 417.414C385.298 418.071 385.576 418.759 385.832 419.479L384.041 420.021ZM380.516 414.254C380.015 413.774 379.492 413.357 378.947 413.002L380.004 411.552C380.649 411.969 381.283 412.46 381.861 413.033L380.516 414.254ZM374.465 411.75H372.207V409.988H374.465V411.75ZM366.88 411.75H364.622V409.988H366.88V411.75ZM359.305 411.75H357.047V409.988H359.305V411.75ZM351.72 411.75H349.462V409.988H351.72V411.75ZM344.145 411.75H341.888V409.988H344.145V411.75ZM336.571 411.75H334.313V409.988H336.571V411.75ZM328.986 411.75H326.728V409.988H328.986V411.75ZM321.411 411.75H319.153V409.988H321.411V411.75ZM313.826 411.75H311.568V409.988H313.826V411.75ZM306.251 411.75H303.994V409.988H306.251V411.75ZM298.677 411.75H296.419V409.988H298.677V411.75ZM291.092 411.75H288.834V409.988H291.092V411.75ZM283.517 411.75H281.259V409.988H283.517V411.75ZM275.932 411.75H273.674V409.988H275.932V411.75ZM268.157 411.531C267.368 411.354 266.578 411.062 265.833 410.676L266.745 409.133C267.345 409.445 267.968 409.675 268.602 409.81L268.157 411.531ZM261.662 407.036C261.217 406.442 260.805 405.805 260.438 405.117L262.107 404.314C262.44 404.919 262.807 405.493 263.197 406.024L261.662 407.036ZM258.592 400.205C258.425 399.495 258.292 398.765 258.203 398.035L260.06 397.827C260.149 398.505 260.271 399.172 260.416 399.829L258.592 400.205ZM257.98 392.966L257.947 390.849L259.827 390.828L259.86 392.946L257.98 392.966ZM257.869 385.853L257.836 383.736L259.715 383.715L259.749 385.832L257.869 385.853ZM257.758 378.751L257.724 376.633L259.604 376.613L259.637 378.73L257.758 378.751ZM257.647 371.648L257.613 369.531L259.493 369.51L259.526 371.627L257.647 371.648ZM257.535 364.535L257.502 362.418L259.382 362.397L259.415 364.514L257.535 364.535ZM257.424 357.432L257.391 355.315L259.27 355.294L259.304 357.411L257.424 357.432ZM257.313 350.33L257.279 348.212L259.159 348.192L259.193 350.309L257.313 350.33ZM257.213 343.227L257.179 341.11L259.059 341.089L259.092 343.206L257.213 343.227ZM257.102 336.114L257.068 333.997L258.948 333.976L258.981 336.093L257.102 336.114ZM256.99 329.011L256.957 326.894L258.837 326.873L258.87 328.99L256.99 329.011ZM256.879 321.909L256.846 319.791L258.725 319.77L258.759 321.888L256.879 321.909ZM256.768 314.796L256.735 312.678L258.614 312.657L258.648 314.775L256.768 314.796ZM256.657 307.693L256.623 305.576L258.503 305.555L258.536 307.672L256.657 307.693ZM256.545 300.59L256.512 298.473L258.392 298.452L258.425 300.569L256.545 300.59ZM256.434 293.477L256.401 291.36L258.281 291.339L258.314 293.456L256.434 293.477ZM256.323 286.374L256.29 284.257L258.169 284.236L258.203 286.354L256.323 286.374ZM256.223 279.272L256.19 277.155L258.069 277.134L258.103 279.251L256.223 279.272ZM256.112 272.159L256.078 270.041L257.958 270.021L257.991 272.138L256.112 272.159ZM256 265.056L255.967 262.939L257.847 262.918L257.88 265.035L256 265.056ZM255.889 257.953L255.856 255.836L257.736 255.815L257.769 257.933L255.889 257.953ZM255.778 250.84L255.745 248.723L257.624 248.702L257.658 250.819L255.778 250.84ZM255.667 243.738L255.633 241.62L257.513 241.6L257.546 243.717L255.667 243.738ZM255.556 236.635L255.522 234.518L257.402 234.497L257.435 236.614L255.556 236.635ZM255.444 229.522L255.411 227.405L257.291 227.384L257.324 229.501L255.444 229.522ZM255.344 222.419L255.311 220.302L257.191 220.281L257.224 222.398L255.344 222.419ZM255.233 215.317L255.2 213.199L257.079 213.179L257.113 215.296L255.233 215.317ZM255.122 208.204L255.088 206.086L256.968 206.065L257.001 208.183L255.122 208.204Z" fill="#EAEAEA"/>
<path d="M387 509.937H385.12V511H387V509.937Z" fill="#EAEAEA"/>
</g>
<g opacity="0.6">
<path d="M254.81 243.62C240.71 243.62 227.44 238.13 217.47 228.15C207.5 218.18 202 204.92 202 190.81C202 176.7 207.49 163.44 217.47 153.47C227.44 143.5 240.7 138 254.81 138C268.92 138 282.18 143.49 292.15 153.47C302.12 163.44 307.62 176.7 307.62 190.81C307.62 204.92 302.13 218.18 292.15 228.15C282.17 238.12 268.91 243.62 254.81 243.62ZM254.81 139.69C241.16 139.69 228.32 145.01 218.66 154.66C209 164.32 203.69 177.15 203.69 190.81C203.69 204.46 209.01 217.3 218.66 226.96C238.59 246.89 271.02 246.89 290.95 226.96C300.61 217.3 305.92 204.47 305.92 190.81C305.92 177.16 300.6 164.32 290.95 154.66C281.3 145.01 268.46 139.69 254.81 139.69Z" fill="#EAEAEA"/>
</g>
<g opacity="0.6">
<path d="M234.34 170.34C223.04 181.64 223.04 199.97 234.34 211.27C245.64 222.57 263.97 222.57 275.27 211.27C286.57 199.97 286.57 181.64 275.27 170.34C263.97 159.04 245.64 159.04 234.34 170.34ZM274.28 210.29C263.52 221.05 246.09 221.05 235.33 210.29C224.57 199.53 224.57 182.1 235.33 171.34C246.09 160.58 263.52 160.58 274.28 171.34C285.04 182.09 285.04 199.53 274.28 210.29Z" fill="#EAEAEA"/>
</g>
<g opacity="0.6">
<path d="M205.286 140.102L204.091 141.297L227.093 164.299L228.288 163.104L205.286 140.102Z" fill="#EAEAEA"/>
</g>
<g opacity="0.6">
<path d="M280.647 215.456L279.452 216.651L302.454 239.653L303.649 238.458L280.647 215.456Z" fill="#EAEAEA"/>
</g>
<g opacity="0.6">
<path d="M254.81 199.87C259.814 199.87 263.87 195.814 263.87 190.81C263.87 185.806 259.814 181.75 254.81 181.75C249.806 181.75 245.75 185.806 245.75 190.81C245.75 195.814 249.806 199.87 254.81 199.87Z" fill="#EAEAEA"/>
</g>
<g opacity="0.8">
<path d="M35.0002 31.327L35.0176 29L35.7372 29.0206L35.7199 31.3476L35.0002 31.327Z" fill="#EAEAEA"/>
<path d="M241.29 192.417L241.29 190.09L239.858 190.09L239.858 192.417L241.29 192.417ZM236.485 192.417L236.485 190.09L235.053 190.09L235.053 192.417L236.485 192.417ZM231.68 192.417L231.68 190.09L230.247 190.09L230.247 192.417L231.68 192.417ZM226.868 192.417L226.868 190.09L225.435 190.09L225.435 192.417L226.868 192.417ZM222.063 192.417L222.063 190.09L220.63 190.09L220.63 192.417L222.063 192.417ZM217.25 192.417L217.25 190.09L215.818 190.09L215.818 192.417L217.25 192.417ZM212.445 192.417L212.445 190.09L211.013 190.09L211.013 192.417L212.445 192.417ZM207.64 192.417L207.64 190.09L206.208 190.09L206.208 192.417L207.64 192.417ZM202.828 192.417L202.828 190.09L201.396 190.09L201.396 192.417L202.828 192.417ZM198.023 192.417L198.023 190.09L196.591 190.09L196.591 192.417L198.023 192.417ZM193.211 192.417L193.211 190.09L191.778 190.09L191.778 192.417L193.211 192.417ZM188.406 192.417L188.406 190.09L188.349 190.09C187.905 190.09 187.467 190.049 187.03 189.98L186.931 192.293C187.397 192.376 187.876 192.417 188.349 192.417L188.406 192.417ZM183.855 188.754C183.417 188.479 182.987 188.148 182.584 187.79L182.091 189.911C182.535 190.31 183.001 190.655 183.488 190.971L183.855 188.754ZM179.953 184.389C179.628 183.769 179.346 183.122 179.106 182.447L178.125 183.755C178.407 184.554 178.739 185.339 179.127 186.055L179.953 184.389ZM178.266 176.898L178.266 174.102L177.074 174.102L177.074 176.898L178.266 176.898ZM178.266 167.52L178.266 164.724L177.074 164.724L177.074 167.52L178.266 167.52ZM178.266 158.128L178.266 155.333L177.074 155.333L177.074 158.128L178.266 158.128ZM178.266 148.75L178.266 145.955L177.074 145.955L177.074 148.75L178.266 148.75ZM178.266 139.373L178.266 136.577L177.074 136.577L177.074 139.373L178.266 139.373ZM178.266 129.981L178.266 127.186L177.074 127.186L177.074 129.981L178.266 129.981ZM178.266 120.603L178.266 117.808L177.074 117.808L177.074 120.603L178.266 120.603ZM178.266 111.212L178.266 108.416L177.074 108.416L177.074 111.212L178.266 111.212ZM178.266 101.834L178.266 99.0386L177.074 99.0386L177.074 101.834L178.266 101.834ZM178.266 92.4562L178.266 89.6608L177.074 89.6608L177.074 92.4562L178.266 92.4562ZM178.266 83.0646L178.266 80.2692L177.074 80.2692L177.074 83.0646L178.266 83.0646ZM178.266 73.6868L178.266 70.8914L177.074 70.8914L177.074 73.6868L178.266 73.6868ZM178.266 64.2953L178.266 61.4999L177.074 61.4999L177.074 64.2953L178.266 64.2953ZM178.266 54.9175L178.266 52.1221L177.074 52.1221L177.074 54.9175L178.266 54.9175ZM178.111 45.2918C177.991 44.3141 177.793 43.3364 177.532 42.4138L176.488 43.543C176.7 44.2866 176.855 45.0577 176.947 45.8427L178.111 45.2918ZM175.07 37.2498C174.668 36.699 174.237 36.1894 173.772 35.735L173.228 37.8006C173.637 38.2137 174.026 38.6682 174.385 39.1502L175.07 37.2498ZM170.455 33.4353C169.975 33.2288 169.482 33.0636 168.988 32.9534L168.846 35.2531C169.305 35.3632 169.757 35.5147 170.201 35.6937L170.455 33.4353ZM165.551 32.678L164.119 32.6366L164.105 34.9638L165.537 35.0052L165.551 32.678ZM160.746 32.5402L159.314 32.4989L159.3 34.8262L160.732 34.8674L160.746 32.5402ZM155.934 32.4163L154.502 32.375L154.488 34.7022L155.92 34.7436L155.934 32.4163ZM151.129 32.2786L149.697 32.2373L149.682 34.5645L151.115 34.6058L151.129 32.2786ZM146.324 32.1409L144.891 32.0996L144.877 34.4269L146.31 34.4681L146.324 32.1409ZM141.512 32.0032L140.079 31.9619L140.065 34.2891L141.498 34.3305L141.512 32.0032ZM136.707 31.8655L135.274 31.8242L135.26 34.1514L136.692 34.1927L136.707 31.8655ZM131.901 31.7278L130.469 31.6864L130.455 34.0137L131.887 34.055L131.901 31.7278ZM127.089 31.5901L125.657 31.5488L125.643 33.876L127.075 33.9173L127.089 31.5901ZM122.284 31.4524L120.852 31.4111L120.838 33.7383L122.27 33.7796L122.284 31.4524ZM117.479 31.3285L116.047 31.2871L116.033 33.6144L117.465 33.6557L117.479 31.3285ZM112.667 31.1907L111.235 31.1494L111.22 33.4767L112.653 33.5179L112.667 31.1907ZM107.862 31.053L106.429 31.0117L106.415 33.3389L107.848 33.3803L107.862 31.053ZM103.057 30.9153L101.624 30.874L101.61 33.2012L103.043 33.2425L103.057 30.9153ZM98.2445 30.7776L96.8121 30.7363L96.798 33.0635L98.2303 33.1048L98.2445 30.7776ZM93.4394 30.6399L92.007 30.5986L91.9929 32.9258L93.4252 32.9672L93.4394 30.6399ZM88.6342 30.5022L87.2019 30.4609L87.1878 32.7881L88.6201 32.8294L88.6342 30.5022ZM83.8221 30.3645L82.3897 30.3232L82.3756 32.6504L83.808 32.6917L83.8221 30.3645ZM79.017 30.2405L77.5846 30.1993L77.5705 32.5265L79.0028 32.5678L79.017 30.2405ZM74.2118 30.1029L72.7795 30.0615L72.7654 32.3887L74.1977 32.4301L74.2118 30.1029ZM69.3997 29.9651L67.9673 29.9238L67.9532 32.2511L69.3856 32.2923L69.3997 29.9651ZM64.5946 29.8274L63.1622 29.7861L63.1481 32.1133L64.5804 32.1547L64.5946 29.8274ZM59.7894 29.6898L58.3571 29.6484L58.343 31.9756L59.7753 32.017L59.7894 29.6898ZM54.9773 29.552L53.5449 29.5107L53.5308 31.838L54.9632 31.8792L54.9773 29.552ZM50.1722 29.4143L48.7398 29.373L48.7257 31.7002L50.158 31.7416L50.1722 29.4143ZM45.367 29.2766L43.9347 29.2353L43.9206 31.5625L45.3529 31.6038L45.367 29.2766ZM40.5549 29.1527L39.1225 29.1113L39.1084 31.4386L40.5408 31.4799L40.5549 29.1527Z" fill="#EAEAEA"/>
<path d="M244.684 192.431L244.684 190.104L245.404 190.104L245.404 192.431L244.684 192.431Z" fill="#EAEAEA"/>
</g>
<g opacity="0.6">
<path d="M30 60C21.9902 60 14.4518 56.8813 8.78811 51.2119C3.12441 45.5482 0 38.0155 0 30C0 21.9902 3.11873 14.4518 8.78811 8.78811C14.4575 3.12441 21.9845 0 30 0C38.0098 0 45.5482 3.11873 51.2119 8.78811C56.8756 14.4518 60 21.9845 60 30C60 38.0098 56.8813 45.5482 51.2119 51.2119C45.5425 56.8813 38.0098 60 30 60ZM30 0.965724C22.2458 0.965724 14.9517 3.98788 9.46412 9.4698C3.97652 14.9574 0.960047 22.2458 0.960047 30.0057C0.960047 37.7599 3.9822 45.054 9.46412 50.5416C20.7858 61.8633 39.2085 61.8633 50.5302 50.5416C56.0178 45.054 59.0343 37.7656 59.0343 30.0057C59.0343 22.2515 56.0121 14.9574 50.5302 9.4698C45.0483 3.9822 37.7542 0.965724 30 0.965724Z" fill="#EAEAEA"/>
</g>
<g opacity="0.6">
<path d="M18.3716 18.3769C11.9523 24.7962 11.9523 35.209 18.3716 41.6282C24.7908 48.0474 35.2036 48.0474 41.6228 41.6282C48.0421 35.209 48.0421 24.7962 41.6228 18.3769C35.2036 11.9577 24.7965 11.9577 18.3716 18.3769ZM41.0604 41.0658C34.948 47.1783 25.0464 47.1783 18.934 41.0658C12.8215 34.9533 12.8215 25.0518 18.934 18.9393C25.0464 12.8268 34.948 12.8268 41.0604 18.9393C47.1729 25.0518 47.1729 34.959 41.0604 41.0658Z" fill="#EAEAEA"/>
</g>
<g opacity="0.6">
<path d="M1.87319 1.1942L1.19434 1.87305L14.2612 14.9399L14.94 14.261L1.87319 1.1942Z" fill="#EAEAEA"/>
</g>
<g opacity="0.6">
<path d="M44.6759 44.0008L43.9971 44.6797L57.0639 57.7465L57.7427 57.0677L44.6759 44.0008Z" fill="#EAEAEA"/>
</g>
<g opacity="0.6">
<path d="M29.9998 35.1529C32.8423 35.1529 35.1465 32.8486 35.1465 30.0061C35.1465 27.1637 32.8423 24.8594 29.9998 24.8594C27.1573 24.8594 24.853 27.1637 24.853 30.0061C24.853 32.8486 27.1573 35.1529 29.9998 35.1529Z" fill="#EAEAEA"/>
</g>
<g opacity="0.6">
<path d="M386 546C377.99 546 370.452 542.881 364.788 537.212C359.124 531.548 356 524.016 356 516C356 507.99 359.119 500.452 364.788 494.788C370.457 489.124 377.984 486 386 486C394.01 486 401.548 489.119 407.212 494.788C412.876 500.452 416 507.984 416 516C416 524.01 412.881 531.548 407.212 537.212C401.543 542.881 394.01 546 386 546ZM386 486.966C378.246 486.966 370.952 489.988 365.464 495.47C359.977 500.957 356.96 508.246 356.96 516.006C356.96 523.76 359.982 531.054 365.464 536.542C376.786 547.863 395.208 547.863 406.53 536.542C412.018 531.054 415.034 523.766 415.034 516.006C415.034 508.251 412.012 500.957 406.53 495.47C401.048 489.982 393.754 486.966 386 486.966Z" fill="#EAEAEA"/>
</g>
<g opacity="0.6">
<path d="M374.372 504.377C367.952 510.796 367.952 521.209 374.372 527.628C380.791 534.047 391.204 534.047 397.623 527.628C404.042 521.209 404.042 510.796 397.623 504.377C391.204 497.958 380.796 497.958 374.372 504.377ZM397.06 527.066C390.948 533.178 381.046 533.178 374.934 527.066C368.821 520.953 368.821 511.052 374.934 504.939C381.046 498.827 390.948 498.827 397.06 504.939C403.173 511.052 403.173 520.959 397.06 527.066Z" fill="#EAEAEA"/>
</g>
<g opacity="0.6">
<path d="M357.873 487.194L357.194 487.873L370.261 500.94L370.94 500.261L357.873 487.194Z" fill="#EAEAEA"/>
</g>
<g opacity="0.6">
<path d="M400.676 530.001L399.997 530.68L413.064 543.747L413.743 543.068L400.676 530.001Z" fill="#EAEAEA"/>
</g>
<g opacity="0.6">
<path d="M386 521.153C388.842 521.153 391.147 518.849 391.147 516.006C391.147 513.164 388.842 510.859 386 510.859C383.157 510.859 380.853 513.164 380.853 516.006C380.853 518.849 383.157 521.153 386 521.153Z" fill="#EAEAEA"/>
</g>
</svg>
