<svg width="1280" height="800" viewBox="0 0 1280 800" fill="none" xmlns="http://www.w3.org/2000/svg">
<path d="M1280 0H0V800H1280V0Z" fill="#100C38"/>
<path d="M-101.62 508.61L74.1099 511.81" stroke="#132E65" stroke-opacity="0.3" stroke-width="1.5"/>
<path d="M-101.62 508.61L81.3199 648.9" stroke="#132E65" stroke-opacity="0.3" stroke-width="1.5"/>
<path d="M-101.62 508.61L201.89 525.28" stroke="#132E65" stroke-opacity="0.3" stroke-width="1.5"/>
<path d="M-101.62 508.61L68.1399 793.7" stroke="#132E65" stroke-opacity="0.3" stroke-width="1.5"/>
<path d="M-39.2202 658.51L81.3198 648.9" stroke="#132E65" stroke-opacity="0.3" stroke-width="1.5"/>
<path d="M-39.2202 658.51L68.1398 793.7" stroke="#132E65" stroke-opacity="0.3" stroke-width="1.5"/>
<path d="M-82.5601 815.69L68.1399 793.7" stroke="#132E65" stroke-opacity="0.3" stroke-width="1.5"/>
<path d="M-39.77 967.7L68.14 793.7" stroke="#132E65" stroke-opacity="0.3" stroke-width="1.5"/>
<path d="M74.1099 511.81L201.89 525.28" stroke="#132E65" stroke-opacity="0.3" stroke-width="1.5"/>
<path d="M74.1099 511.81L81.3199 648.9" stroke="#132E65" stroke-opacity="0.3" stroke-width="1.5"/>
<path d="M81.3199 648.9L68.1399 793.7" stroke="#132E65" stroke-opacity="0.3" stroke-width="1.5"/>
<path d="M81.3198 648.9L247.48 638.61" stroke="#132E65" stroke-opacity="0.3" stroke-width="1.5"/>
<path d="M81.3198 648.9L201.89 525.28" stroke="#132E65" stroke-opacity="0.3" stroke-width="1.5"/>
<path d="M107.17 997.92L68.1399 793.7" stroke="#132E65" stroke-opacity="0.3" stroke-width="1.5"/>
<path d="M201.89 525.28L247.48 638.61" stroke="#132E65" stroke-opacity="0.3" stroke-width="1.5"/>
<path d="M247.48 638.61L383.05 689.84" stroke="#132E65" stroke-opacity="0.3" stroke-width="1.5"/>
<path d="M247.48 638.61L364.28 546.54" stroke="#132E65" stroke-opacity="0.3" stroke-width="1.5"/>
<path d="M235.93 986.79L68.1399 793.7" stroke="#132E65" stroke-opacity="0.3" stroke-width="1.5"/>
<path d="M364.28 546.54L383.05 689.84" stroke="#132E65" stroke-opacity="0.3" stroke-width="1.5"/>
<path d="M383.05 689.84L347.28 810.26" stroke="#132E65" stroke-opacity="0.3" stroke-width="1.5"/>
<path d="M530.68 387.72L651.18 407.98" stroke="#132E65" stroke-opacity="0.3" stroke-width="1.5"/>
<path d="M530.68 387.72L682.61 494.48" stroke="#132E65" stroke-opacity="0.3" stroke-width="1.5"/>
<path d="M530.68 387.72L364.28 546.54" stroke="#132E65" stroke-opacity="0.3" stroke-width="1.5"/>
<path d="M530.68 387.72L555.14 703.26" stroke="#132E65" stroke-opacity="0.3" stroke-width="1.5"/>
<path d="M530.68 387.72L845.38 346.74" stroke="#132E65" stroke-opacity="0.3" stroke-width="1.5"/>
<path d="M530.68 387.72L678.54 676.21" stroke="#132E65" stroke-opacity="0.3" stroke-width="1.5"/>
<path d="M555.14 703.26L678.54 676.21" stroke="#132E65" stroke-opacity="0.3" stroke-width="1.5"/>
<path d="M509.77 847.94L555.14 703.26" stroke="#132E65" stroke-opacity="0.3" stroke-width="1.5"/>
<path d="M509.77 847.94L655.54 794.84" stroke="#132E65" stroke-opacity="0.3" stroke-width="1.5"/>
<path d="M557.17 968.79L655.54 794.84" stroke="#132E65" stroke-opacity="0.3" stroke-width="1.5"/>
<path d="M651.18 407.98L682.61 494.48" stroke="#132E65" stroke-opacity="0.3" stroke-width="1.5"/>
<path d="M651.18 407.98L845.38 346.74" stroke="#132E65" stroke-opacity="0.3" stroke-width="1.5"/>
<path d="M651.18 407.98L854.38 507.89" stroke="#132E65" stroke-opacity="0.3" stroke-width="1.5"/>
<path d="M651.18 407.98L820.14 241.39" stroke="#132E65" stroke-opacity="0.3" stroke-width="1.5"/>
<path d="M651.18 407.98L678.54 676.21" stroke="#132E65" stroke-opacity="0.3" stroke-width="1.5"/>
<path d="M682.61 494.48L854.38 507.89" stroke="#132E65" stroke-opacity="0.3" stroke-width="1.5"/>
<path d="M682.61 494.48L678.54 676.21" stroke="#132E65" stroke-opacity="0.3" stroke-width="1.5"/>
<path d="M682.61 494.48L845.38 346.74" stroke="#132E65" stroke-opacity="0.3" stroke-width="1.5"/>
<path d="M682.61 494.48L555.14 703.26" stroke="#132E65" stroke-opacity="0.3" stroke-width="1.5"/>
<path d="M678.54 676.21L655.54 794.84" stroke="#132E65" stroke-opacity="0.3" stroke-width="1.5"/>
<path d="M655.54 794.84L555.14 703.26" stroke="#132E65" stroke-opacity="0.3" stroke-width="1.5"/>
<path d="M663.28 985.89L655.54 794.84" stroke="#132E65" stroke-opacity="0.3" stroke-width="1.5"/>
<path d="M828.16 -66.4697L825.58 106.19" stroke="#132E65" stroke-opacity="0.3" stroke-width="1.5"/>
<path d="M828.16 -66.4697L992.72 56.1703" stroke="#132E65" stroke-opacity="0.3" stroke-width="1.5"/>
<path d="M828.16 -66.4697L820.14 241.39" stroke="#132E65" stroke-opacity="0.3" stroke-width="1.5"/>
<path d="M828.16 -66.4697L974.69 219.91" stroke="#132E65" stroke-opacity="0.3" stroke-width="1.5"/>
<path d="M825.58 106.19L820.14 241.39" stroke="#132E65" stroke-opacity="0.3" stroke-width="1.5"/>
<path d="M825.58 106.19L992.72 56.1704" stroke="#132E65" stroke-opacity="0.3" stroke-width="1.5"/>
<path d="M825.58 106.19L974.69 219.91" stroke="#132E65" stroke-opacity="0.3" stroke-width="1.5"/>
<path d="M825.58 106.19L845.38 346.74" stroke="#132E65" stroke-opacity="0.3" stroke-width="1.5"/>
<path d="M825.58 106.19L1010.01 -108.77" stroke="#132E65" stroke-opacity="0.3" stroke-width="1.5"/>
<path d="M820.14 241.39L845.38 346.74" stroke="#132E65" stroke-opacity="0.3" stroke-width="1.5"/>
<path d="M820.14 241.39L974.69 219.91" stroke="#132E65" stroke-opacity="0.3" stroke-width="1.5"/>
<path d="M820.14 241.39L968.53 406.66" stroke="#132E65" stroke-opacity="0.3" stroke-width="1.5"/>
<path d="M845.38 346.74L968.53 406.66" stroke="#132E65" stroke-opacity="0.3" stroke-width="1.5"/>
<path d="M845.38 346.74L854.38 507.89" stroke="#132E65" stroke-opacity="0.3" stroke-width="1.5"/>
<path d="M845.38 346.74L974.69 219.91" stroke="#132E65" stroke-opacity="0.3" stroke-width="1.5"/>
<path d="M845.38 346.74L969.45 497.24" stroke="#132E65" stroke-opacity="0.3" stroke-width="1.5"/>
<path d="M854.38 507.89L969.45 497.24" stroke="#132E65" stroke-opacity="0.3" stroke-width="1.5"/>
<path d="M860.85 663.93L946.99 703.63" stroke="#132E65" stroke-opacity="0.3" stroke-width="1.5"/>
<path d="M860.85 663.93L854.38 507.89" stroke="#132E65" stroke-opacity="0.3" stroke-width="1.5"/>
<path d="M853.76 834.25L946.99 703.63" stroke="#132E65" stroke-opacity="0.3" stroke-width="1.5"/>
<path d="M853.76 834.25L860.85 663.93" stroke="#132E65" stroke-opacity="0.3" stroke-width="1.5"/>
<path d="M853.76 834.25L655.54 794.84" stroke="#132E65" stroke-opacity="0.3" stroke-width="1.5"/>
<path d="M794.56 986.35L655.54 794.84" stroke="#132E65" stroke-opacity="0.3" stroke-width="1.5"/>
<path d="M1010.01 -108.77L992.72 56.1705" stroke="#132E65" stroke-opacity="0.3" stroke-width="1.5"/>
<path d="M1010.01 -108.77L1119.26 89.4305" stroke="#132E65" stroke-opacity="0.3" stroke-width="1.5"/>
<path d="M992.72 56.1704L1119.26 89.4304" stroke="#132E65" stroke-opacity="0.3" stroke-width="1.5"/>
<path d="M992.72 56.1704L974.69 219.91" stroke="#132E65" stroke-opacity="0.3" stroke-width="1.5"/>
<path d="M992.72 56.1704L1104.14 220.14" stroke="#132E65" stroke-opacity="0.3" stroke-width="1.5"/>
<path d="M974.69 219.91L1104.14 220.14" stroke="#132E65" stroke-opacity="0.3" stroke-width="1.5"/>
<path d="M968.53 406.66L969.45 497.24" stroke="#132E65" stroke-opacity="0.3" stroke-width="1.5"/>
<path d="M968.53 406.66L854.38 507.89" stroke="#132E65" stroke-opacity="0.3" stroke-width="1.5"/>
<path d="M968.53 406.66L1130.18 377.39" stroke="#132E65" stroke-opacity="0.3" stroke-width="1.5"/>
<path d="M968.53 406.66L974.69 219.91" stroke="#132E65" stroke-opacity="0.3" stroke-width="1.5"/>
<path d="M968.53 406.66L1144.24 518.94" stroke="#132E65" stroke-opacity="0.3" stroke-width="1.5"/>
<path d="M946.99 703.63L981.6 846.44" stroke="#132E65" stroke-opacity="0.3" stroke-width="1.5"/>
<path d="M981.6 846.44L860.85 663.93" stroke="#132E65" stroke-opacity="0.3" stroke-width="1.5"/>
<path d="M1149.99 -103.41L1259.23 57.1603" stroke="#132E65" stroke-opacity="0.3" stroke-width="1.5"/>
<path d="M1149.99 -103.41L1119.26 89.4303" stroke="#132E65" stroke-opacity="0.3" stroke-width="1.5"/>
<path d="M1149.99 -103.41L992.72 56.1703" stroke="#132E65" stroke-opacity="0.3" stroke-width="1.5"/>
<path d="M1119.26 89.4302L1104.14 220.14" stroke="#132E65" stroke-opacity="0.3" stroke-width="1.5"/>
<path d="M1119.26 89.4302L1259.23 57.1602" stroke="#132E65" stroke-opacity="0.3" stroke-width="1.5"/>
<path d="M1119.26 89.4302L974.69 219.91" stroke="#132E65" stroke-opacity="0.3" stroke-width="1.5"/>
<path d="M1104.14 220.14L1130.18 377.39" stroke="#132E65" stroke-opacity="0.3" stroke-width="1.5"/>
<path d="M1130.18 377.39L1144.24 518.94" stroke="#132E65" stroke-opacity="0.3" stroke-width="1.5"/>
<path d="M1130.18 377.39L1298.4 392.45" stroke="#132E65" stroke-opacity="0.3" stroke-width="1.5"/>
<path d="M1144.24 518.94L1137.89 663.93" stroke="#132E65" stroke-opacity="0.3" stroke-width="1.5"/>
<path d="M1144.24 518.94L969.45 497.24" stroke="#132E65" stroke-opacity="0.3" stroke-width="1.5"/>
<path d="M1137.89 663.93L1271.31 653.72" stroke="#132E65" stroke-opacity="0.3" stroke-width="1.5"/>
<path d="M1137.89 663.93L946.99 703.63" stroke="#132E65" stroke-opacity="0.3" stroke-width="1.5"/>
<path d="M1137.89 663.93L1280.96 830.73" stroke="#132E65" stroke-opacity="0.3" stroke-width="1.5"/>
<path d="M1137.89 663.93L969.45 497.24" stroke="#132E65" stroke-opacity="0.3" stroke-width="1.5"/>
<path d="M1137.89 663.93L981.6 846.44" stroke="#132E65" stroke-opacity="0.3" stroke-width="1.5"/>
<path d="M1113.35 967.79L1137.89 663.93" stroke="#132E65" stroke-opacity="0.3" stroke-width="1.5"/>
<path d="M1259.23 57.1602L1399.28 73.7702" stroke="#132E65" stroke-opacity="0.3" stroke-width="1.5"/>
<path d="M1259.23 57.1602L1310.68 217.41" stroke="#132E65" stroke-opacity="0.3" stroke-width="1.5"/>
<path d="M1259.23 57.1602L1400.82 214.74" stroke="#132E65" stroke-opacity="0.3" stroke-width="1.5"/>
<path d="M1271.31 653.72L1398.78 671.68" stroke="#132E65" stroke-opacity="0.3" stroke-width="1.5"/>
<path d="M1451.45 -78.98L1259.23 57.16" stroke="#132E65" stroke-opacity="0.3" stroke-width="1.5"/>
<path d="M1400.82 214.74L1104.14 220.14" stroke="#132E65" stroke-opacity="0.3" stroke-width="1.5"/>
<path d="M1398.78 671.68L1137.89 663.93" stroke="#132E65" stroke-opacity="0.3" stroke-width="1.5"/>
<path d="M74.1099 516.81C76.8713 516.81 79.1099 514.571 79.1099 511.81C79.1099 509.049 76.8713 506.81 74.1099 506.81C71.3484 506.81 69.1099 509.049 69.1099 511.81C69.1099 514.571 71.3484 516.81 74.1099 516.81Z" fill="#132E65" fill-opacity="0.3"/>
<path d="M81.3198 653.9C84.0812 653.9 86.3198 651.662 86.3198 648.9C86.3198 646.139 84.0812 643.9 81.3198 643.9C78.5584 643.9 76.3198 646.139 76.3198 648.9C76.3198 651.662 78.5584 653.9 81.3198 653.9Z" fill="#132E65" fill-opacity="0.3"/>
<path d="M68.1399 798.7C70.9013 798.7 73.1399 796.462 73.1399 793.7C73.1399 790.939 70.9013 788.7 68.1399 788.7C65.3785 788.7 63.1399 790.939 63.1399 793.7C63.1399 796.462 65.3785 798.7 68.1399 798.7Z" fill="#132E65" fill-opacity="0.3"/>
<path d="M201.89 530.28C204.651 530.28 206.89 528.042 206.89 525.28C206.89 522.519 204.651 520.28 201.89 520.28C199.128 520.28 196.89 522.519 196.89 525.28C196.89 528.042 199.128 530.28 201.89 530.28Z" fill="#132E65" fill-opacity="0.3"/>
<path d="M247.48 643.61C250.241 643.61 252.48 641.372 252.48 638.61C252.48 635.849 250.241 633.61 247.48 633.61C244.719 633.61 242.48 635.849 242.48 638.61C242.48 641.372 244.719 643.61 247.48 643.61Z" fill="#132E65" fill-opacity="0.3"/>
<path d="M364.28 551.54C367.041 551.54 369.28 549.301 369.28 546.54C369.28 543.779 367.041 541.54 364.28 541.54C361.518 541.54 359.28 543.779 359.28 546.54C359.28 549.301 361.518 551.54 364.28 551.54Z" fill="#132E65" fill-opacity="0.3"/>
<path d="M383.05 694.84C385.811 694.84 388.05 692.602 388.05 689.84C388.05 687.079 385.811 684.84 383.05 684.84C380.288 684.84 378.05 687.079 378.05 689.84C378.05 692.602 380.288 694.84 383.05 694.84Z" fill="#132E65" fill-opacity="0.3"/>
<path d="M530.68 392.72C533.441 392.72 535.68 390.482 535.68 387.72C535.68 384.959 533.441 382.72 530.68 382.72C527.919 382.72 525.68 384.959 525.68 387.72C525.68 390.482 527.919 392.72 530.68 392.72Z" fill="#132E65" fill-opacity="0.3"/>
<path d="M555.14 708.26C557.901 708.26 560.14 706.022 560.14 703.26C560.14 700.499 557.901 698.26 555.14 698.26C552.378 698.26 550.14 700.499 550.14 703.26C550.14 706.022 552.378 708.26 555.14 708.26Z" fill="#132E65" fill-opacity="0.3"/>
<path d="M651.18 412.98C653.941 412.98 656.18 410.742 656.18 407.98C656.18 405.219 653.941 402.98 651.18 402.98C648.419 402.98 646.18 405.219 646.18 407.98C646.18 410.742 648.419 412.98 651.18 412.98Z" fill="#132E65" fill-opacity="0.3"/>
<path d="M682.61 499.48C685.371 499.48 687.61 497.242 687.61 494.48C687.61 491.719 685.371 489.48 682.61 489.48C679.848 489.48 677.61 491.719 677.61 494.48C677.61 497.242 679.848 499.48 682.61 499.48Z" fill="#132E65" fill-opacity="0.3"/>
<path d="M678.54 681.21C681.301 681.21 683.54 678.972 683.54 676.21C683.54 673.449 681.301 671.21 678.54 671.21C675.778 671.21 673.54 673.449 673.54 676.21C673.54 678.972 675.778 681.21 678.54 681.21Z" fill="#132E65" fill-opacity="0.3"/>
<path d="M655.54 799.84C658.301 799.84 660.54 797.602 660.54 794.84C660.54 792.079 658.301 789.84 655.54 789.84C652.778 789.84 650.54 792.079 650.54 794.84C650.54 797.602 652.778 799.84 655.54 799.84Z" fill="#132E65" fill-opacity="0.3"/>
<path d="M825.58 111.19C828.341 111.19 830.58 108.952 830.58 106.19C830.58 103.429 828.341 101.19 825.58 101.19C822.818 101.19 820.58 103.429 820.58 106.19C820.58 108.952 822.818 111.19 825.58 111.19Z" fill="#132E65" fill-opacity="0.3"/>
<path d="M820.14 246.39C822.901 246.39 825.14 244.152 825.14 241.39C825.14 238.629 822.901 236.39 820.14 236.39C817.378 236.39 815.14 238.629 815.14 241.39C815.14 244.152 817.378 246.39 820.14 246.39Z" fill="#132E65" fill-opacity="0.3"/>
<path d="M845.38 351.74C848.141 351.74 850.38 349.502 850.38 346.74C850.38 343.979 848.141 341.74 845.38 341.74C842.618 341.74 840.38 343.979 840.38 346.74C840.38 349.502 842.618 351.74 845.38 351.74Z" fill="#132E65" fill-opacity="0.3"/>
<path d="M854.38 512.89C857.141 512.89 859.38 510.652 859.38 507.89C859.38 505.129 857.141 502.89 854.38 502.89C851.618 502.89 849.38 505.129 849.38 507.89C849.38 510.652 851.618 512.89 854.38 512.89Z" fill="#132E65" fill-opacity="0.3"/>
<path d="M860.85 668.93C863.611 668.93 865.85 666.692 865.85 663.93C865.85 661.169 863.611 658.93 860.85 658.93C858.088 658.93 855.85 661.169 855.85 663.93C855.85 666.692 858.088 668.93 860.85 668.93Z" fill="#132E65" fill-opacity="0.3"/>
<path d="M992.72 61.1704C995.481 61.1704 997.72 58.9318 997.72 56.1704C997.72 53.409 995.481 51.1704 992.72 51.1704C989.958 51.1704 987.72 53.409 987.72 56.1704C987.72 58.9318 989.958 61.1704 992.72 61.1704Z" fill="#132E65" fill-opacity="0.3"/>
<path d="M974.69 224.91C977.451 224.91 979.69 222.672 979.69 219.91C979.69 217.149 977.451 214.91 974.69 214.91C971.929 214.91 969.69 217.149 969.69 219.91C969.69 222.672 971.929 224.91 974.69 224.91Z" fill="#132E65" fill-opacity="0.3"/>
<path d="M968.53 411.66C971.291 411.66 973.53 409.422 973.53 406.66C973.53 403.899 971.291 401.66 968.53 401.66C965.768 401.66 963.53 403.899 963.53 406.66C963.53 409.422 965.768 411.66 968.53 411.66Z" fill="#132E65" fill-opacity="0.3"/>
<path d="M969.45 502.24C972.211 502.24 974.45 500.002 974.45 497.24C974.45 494.479 972.211 492.24 969.45 492.24C966.689 492.24 964.45 494.479 964.45 497.24C964.45 500.002 966.689 502.24 969.45 502.24Z" fill="#132E65" fill-opacity="0.3"/>
<path d="M946.99 708.63C949.751 708.63 951.99 706.392 951.99 703.63C951.99 700.869 949.751 698.63 946.99 698.63C944.228 698.63 941.99 700.869 941.99 703.63C941.99 706.392 944.228 708.63 946.99 708.63Z" fill="#132E65" fill-opacity="0.3"/>
<path d="M1119.26 94.4302C1122.02 94.4302 1124.26 92.1916 1124.26 89.4302C1124.26 86.6688 1122.02 84.4302 1119.26 84.4302C1116.5 84.4302 1114.26 86.6688 1114.26 89.4302C1114.26 92.1916 1116.5 94.4302 1119.26 94.4302Z" fill="#132E65" fill-opacity="0.3"/>
<path d="M1104.14 225.14C1106.9 225.14 1109.14 222.902 1109.14 220.14C1109.14 217.379 1106.9 215.14 1104.14 215.14C1101.38 215.14 1099.14 217.379 1099.14 220.14C1099.14 222.902 1101.38 225.14 1104.14 225.14Z" fill="#132E65" fill-opacity="0.3"/>
<path d="M1130.18 382.39C1132.94 382.39 1135.18 380.152 1135.18 377.39C1135.18 374.629 1132.94 372.39 1130.18 372.39C1127.42 372.39 1125.18 374.629 1125.18 377.39C1125.18 380.152 1127.42 382.39 1130.18 382.39Z" fill="#132E65" fill-opacity="0.3"/>
<path d="M1144.24 523.94C1147 523.94 1149.24 521.702 1149.24 518.94C1149.24 516.179 1147 513.94 1144.24 513.94C1141.48 513.94 1139.24 516.179 1139.24 518.94C1139.24 521.702 1141.48 523.94 1144.24 523.94Z" fill="#132E65" fill-opacity="0.3"/>
<path d="M1137.89 668.93C1140.65 668.93 1142.89 666.692 1142.89 663.93C1142.89 661.169 1140.65 658.93 1137.89 658.93C1135.13 658.93 1132.89 661.169 1132.89 663.93C1132.89 666.692 1135.13 668.93 1137.89 668.93Z" fill="#132E65" fill-opacity="0.3"/>
<path d="M1259.23 62.1602C1261.99 62.1602 1264.23 59.9216 1264.23 57.1602C1264.23 54.3987 1261.99 52.1602 1259.23 52.1602C1256.47 52.1602 1254.23 54.3987 1254.23 57.1602C1254.23 59.9216 1256.47 62.1602 1259.23 62.1602Z" fill="#132E65" fill-opacity="0.3"/>
<path d="M1271.31 658.72C1274.07 658.72 1276.31 656.482 1276.31 653.72C1276.31 650.959 1274.07 648.72 1271.31 648.72C1268.55 648.72 1266.31 650.959 1266.31 653.72C1266.31 656.482 1268.55 658.72 1271.31 658.72Z" fill="#132E65" fill-opacity="0.3"/>
<path d="M-80.1201 818.2L75.5899 672.72" stroke="#2448E3" stroke-opacity="0.4" stroke-width="1.5"/>
<path d="M-80.1201 818.2L188.04 656.93" stroke="#2448E3" stroke-opacity="0.4" stroke-width="1.5"/>
<path d="M814.95 647.55L973.36 643.32" stroke="#2448E3" stroke-opacity="0.4" stroke-width="1.5"/>
<path d="M814.95 647.55L642.87 673.49" stroke="#2448E3" stroke-opacity="0.4" stroke-width="1.5"/>
<path d="M804.69 1004.79L652.76 792.23" stroke="#2448E3" stroke-opacity="0.4" stroke-width="1.5"/>
<path d="M804.69 1004.79L978.95 789.8" stroke="#2448E3" stroke-opacity="0.4" stroke-width="1.5"/>
<path d="M1114.65 406.99L1111.69 509.34" stroke="#2448E3" stroke-opacity="0.4" stroke-width="1.5"/>
<path d="M1111.69 509.34L1238.11 497.67" stroke="#2448E3" stroke-opacity="0.4" stroke-width="1.5"/>
<path d="M1111.69 509.34L961.96 544.09" stroke="#2448E3" stroke-opacity="0.4" stroke-width="1.5"/>
<path d="M1111.69 509.34L1119.61 689.1" stroke="#2448E3" stroke-opacity="0.4" stroke-width="1.5"/>
<path d="M1111.69 509.34L973.36 643.32" stroke="#2448E3" stroke-opacity="0.4" stroke-width="1.5"/>
<path d="M1298.19 101.74L1245.17 255.86" stroke="#2448E3" stroke-opacity="0.4" stroke-width="1.5"/>
<path d="M1298.19 101.74L1132.98 73.5903" stroke="#2448E3" stroke-opacity="0.4" stroke-width="1.5"/>
<path d="M1284.58 384.63L1238.11 497.67" stroke="#2448E3" stroke-opacity="0.4" stroke-width="1.5"/>
<path d="M1284.58 384.63L1245.17 255.86" stroke="#2448E3" stroke-opacity="0.4" stroke-width="1.5"/>
<path d="M1284.58 384.63L1114.65 406.99" stroke="#2448E3" stroke-opacity="0.4" stroke-width="1.5"/>
<path d="M1284.58 384.63L1111.69 509.34" stroke="#2448E3" stroke-opacity="0.4" stroke-width="1.5"/>
<path d="M-58.02 667.03L75.59 672.72" stroke="#2448E3" stroke-opacity="0.4" stroke-width="1.5"/>
<path d="M-58.02 667.03L188.04 656.93" stroke="#2448E3" stroke-opacity="0.4" stroke-width="1.5"/>
<path d="M-58.02 667.03L228.87 817.85" stroke="#2448E3" stroke-opacity="0.4" stroke-width="1.5"/>
<path d="M75.5898 672.72L188.04 656.93" stroke="#2448E3" stroke-opacity="0.4" stroke-width="1.5"/>
<path d="M75.5898 672.72L228.87 817.85" stroke="#2448E3" stroke-opacity="0.4" stroke-width="1.5"/>
<path d="M188.04 656.93L228.87 817.85" stroke="#2448E3" stroke-opacity="0.4" stroke-width="1.5"/>
<path d="M188.04 656.93L392.32 654.64" stroke="#2448E3" stroke-opacity="0.4" stroke-width="1.5"/>
<path d="M188.04 656.93L375.33 809.91" stroke="#2448E3" stroke-opacity="0.4" stroke-width="1.5"/>
<path d="M392.32 654.64L511.63 671.8" stroke="#2448E3" stroke-opacity="0.4" stroke-width="1.5"/>
<path d="M392.32 654.64L375.33 809.91" stroke="#2448E3" stroke-opacity="0.4" stroke-width="1.5"/>
<path d="M392.32 654.64L542.28 815.24" stroke="#2448E3" stroke-opacity="0.4" stroke-width="1.5"/>
<path d="M392.32 654.64L228.87 817.85" stroke="#2448E3" stroke-opacity="0.4" stroke-width="1.5"/>
<path d="M392.32 654.64L642.87 673.49" stroke="#2448E3" stroke-opacity="0.4" stroke-width="1.5"/>
<path d="M375.33 809.91L511.63 671.8" stroke="#2448E3" stroke-opacity="0.4" stroke-width="1.5"/>
<path d="M511.63 671.8L642.87 673.49" stroke="#2448E3" stroke-opacity="0.4" stroke-width="1.5"/>
<path d="M511.63 671.8L542.28 815.24" stroke="#2448E3" stroke-opacity="0.4" stroke-width="1.5"/>
<path d="M511.63 671.8L652.76 792.23" stroke="#2448E3" stroke-opacity="0.4" stroke-width="1.5"/>
<path d="M542.28 815.24L652.76 792.23" stroke="#2448E3" stroke-opacity="0.4" stroke-width="1.5"/>
<path d="M542.28 815.24L642.87 673.49" stroke="#2448E3" stroke-opacity="0.4" stroke-width="1.5"/>
<path d="M658.62 531.71L642.87 673.49" stroke="#2448E3" stroke-opacity="0.4" stroke-width="1.5"/>
<path d="M658.62 531.71L814.95 647.55" stroke="#2448E3" stroke-opacity="0.4" stroke-width="1.5"/>
<path d="M658.62 531.71L511.63 671.8" stroke="#2448E3" stroke-opacity="0.4" stroke-width="1.5"/>
<path d="M658.62 531.71L845.09 392.25" stroke="#2448E3" stroke-opacity="0.4" stroke-width="1.5"/>
<path d="M658.62 531.71L652.76 792.23" stroke="#2448E3" stroke-opacity="0.4" stroke-width="1.5"/>
<path d="M642.87 673.49L652.76 792.23" stroke="#2448E3" stroke-opacity="0.4" stroke-width="1.5"/>
<path d="M652.76 792.23L790.46 847.06" stroke="#2448E3" stroke-opacity="0.4" stroke-width="1.5"/>
<path d="M652.76 792.23L706.88 964.841" stroke="#2448E3" stroke-opacity="0.4" stroke-width="1.5"/>
<path d="M845.09 392.25L985.09 342.58" stroke="#2448E3" stroke-opacity="0.4" stroke-width="1.5"/>
<path d="M845.09 392.25L961.96 544.09" stroke="#2448E3" stroke-opacity="0.4" stroke-width="1.5"/>
<path d="M985.09 342.58L1114.65 406.99" stroke="#2448E3" stroke-opacity="0.4" stroke-width="1.5"/>
<path d="M985.09 342.58L961.96 544.09" stroke="#2448E3" stroke-opacity="0.4" stroke-width="1.5"/>
<path d="M985.09 342.58L1111.69 509.34" stroke="#2448E3" stroke-opacity="0.4" stroke-width="1.5"/>
<path d="M985.09 342.58L1245.17 255.86" stroke="#2448E3" stroke-opacity="0.4" stroke-width="1.5"/>
<path d="M961.96 544.09L973.36 643.32" stroke="#2448E3" stroke-opacity="0.4" stroke-width="1.5"/>
<path d="M961.96 544.09L814.95 647.55" stroke="#2448E3" stroke-opacity="0.4" stroke-width="1.5"/>
<path d="M973.36 643.32L978.95 789.8" stroke="#2448E3" stroke-opacity="0.4" stroke-width="1.5"/>
<path d="M973.36 643.32L1119.61 689.1" stroke="#2448E3" stroke-opacity="0.4" stroke-width="1.5"/>
<path d="M973.36 643.32L1103.19 809.03" stroke="#2448E3" stroke-opacity="0.4" stroke-width="1.5"/>
<path d="M978.95 789.8L1103.19 809.03" stroke="#2448E3" stroke-opacity="0.4" stroke-width="1.5"/>
<path d="M978.95 789.8L972.81 939.09" stroke="#2448E3" stroke-opacity="0.4" stroke-width="1.5"/>
<path d="M1141.14 -94.9297L1132.98 73.5903" stroke="#2448E3" stroke-opacity="0.4" stroke-width="1.5"/>
<path d="M1141.14 -94.9297L1298.19 101.74" stroke="#2448E3" stroke-opacity="0.4" stroke-width="1.5"/>
<path d="M1141.14 -94.9297L1435.2 94.3703" stroke="#2448E3" stroke-opacity="0.4" stroke-width="1.5"/>
<path d="M1141.14 -94.9297L1245.17 255.86" stroke="#2448E3" stroke-opacity="0.4" stroke-width="1.5"/>
<path d="M1119.61 689.1L1103.19 809.03" stroke="#2448E3" stroke-opacity="0.4" stroke-width="1.5"/>
<path d="M1119.61 689.1L1276.24 665.62" stroke="#2448E3" stroke-opacity="0.4" stroke-width="1.5"/>
<path d="M1119.61 689.1L978.95 789.8" stroke="#2448E3" stroke-opacity="0.4" stroke-width="1.5"/>
<path d="M1119.61 689.1L961.96 544.09" stroke="#2448E3" stroke-opacity="0.4" stroke-width="1.5"/>
<path d="M1146.28 1002.41L978.95 789.8" stroke="#2448E3" stroke-opacity="0.4" stroke-width="1.5"/>
<path d="M1245.17 255.86L1114.65 406.99" stroke="#2448E3" stroke-opacity="0.4" stroke-width="1.5"/>
<path d="M1245.17 255.86L1132.98 73.5903" stroke="#2448E3" stroke-opacity="0.4" stroke-width="1.5"/>
<path d="M1245.17 255.86L1238.11 497.67" stroke="#2448E3" stroke-opacity="0.4" stroke-width="1.5"/>
<path d="M1276.24 665.62L1298.93 825.47" stroke="#2448E3" stroke-opacity="0.4" stroke-width="1.5"/>
<path d="M1276.24 665.62L1238.11 497.67" stroke="#2448E3" stroke-opacity="0.4" stroke-width="1.5"/>
<path d="M1276.24 665.62L1446.99 542.12" stroke="#2448E3" stroke-opacity="0.4" stroke-width="1.5"/>
<path d="M1276.24 665.62L1459.23 789.02" stroke="#2448E3" stroke-opacity="0.4" stroke-width="1.5"/>
<path d="M1430.85 -58.5498L1132.98 73.5902" stroke="#2448E3" stroke-opacity="0.4" stroke-width="1.5"/>
<path d="M1461.85 370.12L1245.17 255.86" stroke="#2448E3" stroke-opacity="0.4" stroke-width="1.5"/>
<path d="M1461.85 370.12L1238.11 497.67" stroke="#2448E3" stroke-opacity="0.4" stroke-width="1.5"/>
<path d="M1424.28 990.82L1276.24 665.62" stroke="#2448E3" stroke-opacity="0.4" stroke-width="1.5"/>
<path d="M814.95 672.55C828.757 672.55 839.95 661.357 839.95 647.55C839.95 633.743 828.757 622.55 814.95 622.55C801.143 622.55 789.95 633.743 789.95 647.55C789.95 661.357 801.143 672.55 814.95 672.55Z" fill="url(#paint0_radial_94_848)" fill-opacity="0.2"/>
<path d="M1114.65 431.99C1128.46 431.99 1139.65 420.797 1139.65 406.99C1139.65 393.183 1128.46 381.99 1114.65 381.99C1100.84 381.99 1089.65 393.183 1089.65 406.99C1089.65 420.797 1100.84 431.99 1114.65 431.99Z" fill="url(#paint1_radial_94_848)" fill-opacity="0.2"/>
<path d="M1111.69 534.34C1125.5 534.34 1136.69 523.147 1136.69 509.34C1136.69 495.533 1125.5 484.34 1111.69 484.34C1097.88 484.34 1086.69 495.533 1086.69 509.34C1086.69 523.147 1097.88 534.34 1111.69 534.34Z" fill="url(#paint2_radial_94_848)" fill-opacity="0.2"/>
<path d="M1298.19 126.74C1312 126.74 1323.19 115.547 1323.19 101.74C1323.19 87.9331 1312 76.7402 1298.19 76.7402C1284.38 76.7402 1273.19 87.9331 1273.19 101.74C1273.19 115.547 1284.38 126.74 1298.19 126.74Z" fill="url(#paint3_radial_94_848)" fill-opacity="0.2"/>
<path d="M1284.58 409.63C1298.39 409.63 1309.58 398.437 1309.58 384.63C1309.58 370.823 1298.39 359.63 1284.58 359.63C1270.77 359.63 1259.58 370.823 1259.58 384.63C1259.58 398.437 1270.77 409.63 1284.58 409.63Z" fill="url(#paint4_radial_94_848)" fill-opacity="0.2"/>
<path d="M1238.11 522.67C1251.92 522.67 1263.11 511.478 1263.11 497.67C1263.11 483.863 1251.92 472.67 1238.11 472.67C1224.3 472.67 1213.11 483.863 1213.11 497.67C1213.11 511.478 1224.3 522.67 1238.11 522.67Z" fill="url(#paint5_radial_94_848)" fill-opacity="0.2"/>
<path d="M75.5898 677.72C78.3513 677.72 80.5898 675.482 80.5898 672.72C80.5898 669.959 78.3513 667.72 75.5898 667.72C72.8284 667.72 70.5898 669.959 70.5898 672.72C70.5898 675.482 72.8284 677.72 75.5898 677.72Z" fill="#8B9AD9" fill-opacity="0.4"/>
<path d="M188.04 661.93C190.801 661.93 193.04 659.692 193.04 656.93C193.04 654.169 190.801 651.93 188.04 651.93C185.278 651.93 183.04 654.169 183.04 656.93C183.04 659.692 185.278 661.93 188.04 661.93Z" fill="#8B9AD9" fill-opacity="0.4"/>
<path d="M392.32 659.64C395.081 659.64 397.32 657.402 397.32 654.64C397.32 651.879 395.081 649.64 392.32 649.64C389.558 649.64 387.32 651.879 387.32 654.64C387.32 657.402 389.558 659.64 392.32 659.64Z" fill="#8B9AD9" fill-opacity="0.4"/>
<path d="M511.63 676.8C514.391 676.8 516.63 674.562 516.63 671.8C516.63 669.039 514.391 666.8 511.63 666.8C508.868 666.8 506.63 669.039 506.63 671.8C506.63 674.562 508.868 676.8 511.63 676.8Z" fill="#8B9AD9" fill-opacity="0.4"/>
<path d="M658.62 536.71C661.381 536.71 663.62 534.472 663.62 531.71C663.62 528.949 661.381 526.71 658.62 526.71C655.858 526.71 653.62 528.949 653.62 531.71C653.62 534.472 655.858 536.71 658.62 536.71Z" fill="#8B9AD9" fill-opacity="0.4"/>
<path d="M642.87 678.49C645.631 678.49 647.87 676.252 647.87 673.49C647.87 670.729 645.631 668.49 642.87 668.49C640.108 668.49 637.87 670.729 637.87 673.49C637.87 676.252 640.108 678.49 642.87 678.49Z" fill="#8B9AD9" fill-opacity="0.4"/>
<path d="M652.76 797.23C655.521 797.23 657.76 794.992 657.76 792.23C657.76 789.469 655.521 787.23 652.76 787.23C649.998 787.23 647.76 789.469 647.76 792.23C647.76 794.992 649.998 797.23 652.76 797.23Z" fill="#8B9AD9" fill-opacity="0.4"/>
<path d="M845.09 397.25C847.851 397.25 850.09 395.011 850.09 392.25C850.09 389.489 847.851 387.25 845.09 387.25C842.328 387.25 840.09 389.489 840.09 392.25C840.09 395.011 842.328 397.25 845.09 397.25Z" fill="#8B9AD9" fill-opacity="0.4"/>
<path d="M985.09 347.58C987.851 347.58 990.09 345.342 990.09 342.58C990.09 339.819 987.851 337.58 985.09 337.58C982.328 337.58 980.09 339.819 980.09 342.58C980.09 345.342 982.328 347.58 985.09 347.58Z" fill="#8B9AD9" fill-opacity="0.4"/>
<path d="M961.96 549.09C964.721 549.09 966.96 546.852 966.96 544.09C966.96 541.329 964.721 539.09 961.96 539.09C959.199 539.09 956.96 541.329 956.96 544.09C956.96 546.852 959.199 549.09 961.96 549.09Z" fill="#8B9AD9" fill-opacity="0.4"/>
<path d="M973.36 648.32C976.121 648.32 978.36 646.082 978.36 643.32C978.36 640.559 976.121 638.32 973.36 638.32C970.598 638.32 968.36 640.559 968.36 643.32C968.36 646.082 970.598 648.32 973.36 648.32Z" fill="#8B9AD9" fill-opacity="0.4"/>
<path d="M978.95 794.8C981.711 794.8 983.95 792.562 983.95 789.8C983.95 787.039 981.711 784.8 978.95 784.8C976.189 784.8 973.95 787.039 973.95 789.8C973.95 792.562 976.189 794.8 978.95 794.8Z" fill="#8B9AD9" fill-opacity="0.4"/>
<path d="M1132.98 78.5903C1135.74 78.5903 1137.98 76.3518 1137.98 73.5903C1137.98 70.8289 1135.74 68.5903 1132.98 68.5903C1130.22 68.5903 1127.98 70.8289 1127.98 73.5903C1127.98 76.3518 1130.22 78.5903 1132.98 78.5903Z" fill="#8B9AD9" fill-opacity="0.4"/>
<path d="M1119.61 694.1C1122.37 694.1 1124.61 691.862 1124.61 689.1C1124.61 686.339 1122.37 684.1 1119.61 684.1C1116.85 684.1 1114.61 686.339 1114.61 689.1C1114.61 691.862 1116.85 694.1 1119.61 694.1Z" fill="#8B9AD9" fill-opacity="0.4"/>
<path d="M1245.17 260.86C1247.93 260.86 1250.17 258.622 1250.17 255.86C1250.17 253.099 1247.93 250.86 1245.17 250.86C1242.41 250.86 1240.17 253.099 1240.17 255.86C1240.17 258.622 1242.41 260.86 1245.17 260.86Z" fill="#8B9AD9" fill-opacity="0.4"/>
<path d="M1276.24 670.62C1279 670.62 1281.24 668.382 1281.24 665.62C1281.24 662.859 1279 660.62 1276.24 660.62C1273.48 660.62 1271.24 662.859 1271.24 665.62C1271.24 668.382 1273.48 670.62 1276.24 670.62Z" fill="#8B9AD9" fill-opacity="0.4"/>
<defs>
<radialGradient id="paint0_radial_94_848" cx="0" cy="0" r="1" gradientUnits="userSpaceOnUse" gradientTransform="translate(814.95 647.55) scale(25)">
<stop offset="0.1" stop-color="white"/>
<stop offset="0.2" stop-color="#1735B3"/>
<stop offset="1" stop-color="#1735B3" stop-opacity="0"/>
</radialGradient>
<radialGradient id="paint1_radial_94_848" cx="0" cy="0" r="1" gradientUnits="userSpaceOnUse" gradientTransform="translate(1114.65 406.99) scale(25)">
<stop offset="0.1" stop-color="white"/>
<stop offset="0.2" stop-color="#1735B3"/>
<stop offset="1" stop-color="#1735B3" stop-opacity="0"/>
</radialGradient>
<radialGradient id="paint2_radial_94_848" cx="0" cy="0" r="1" gradientUnits="userSpaceOnUse" gradientTransform="translate(1111.69 509.34) scale(25 25)">
<stop offset="0.1" stop-color="white"/>
<stop offset="0.2" stop-color="#1735B3"/>
<stop offset="1" stop-color="#1735B3" stop-opacity="0"/>
</radialGradient>
<radialGradient id="paint3_radial_94_848" cx="0" cy="0" r="1" gradientUnits="userSpaceOnUse" gradientTransform="translate(1298.19 101.74) scale(25)">
<stop offset="0.1" stop-color="white"/>
<stop offset="0.2" stop-color="#1735B3"/>
<stop offset="1" stop-color="#1735B3" stop-opacity="0"/>
</radialGradient>
<radialGradient id="paint4_radial_94_848" cx="0" cy="0" r="1" gradientUnits="userSpaceOnUse" gradientTransform="translate(1284.58 384.63) scale(25)">
<stop offset="0.1" stop-color="white"/>
<stop offset="0.2" stop-color="#1735B3"/>
<stop offset="1" stop-color="#1735B3" stop-opacity="0"/>
</radialGradient>
<radialGradient id="paint5_radial_94_848" cx="0" cy="0" r="1" gradientUnits="userSpaceOnUse" gradientTransform="translate(1238.11 497.67) scale(25 25)">
<stop offset="0.1" stop-color="white"/>
<stop offset="0.2" stop-color="#1735B3"/>
<stop offset="1" stop-color="#1735B3" stop-opacity="0"/>
</radialGradient>
</defs>
</svg>
